<?xml version="1.0" encoding="utf-8" standalone="no"?>
<!DOCTYPE svg PUBLIC "-//W3C//DTD SVG 1.1//EN"
  "http://www.w3.org/Graphics/SVG/1.1/DTD/svg11.dtd">
<svg xmlns:xlink="http://www.w3.org/1999/xlink" width="3168pt" height="1584pt" viewBox="0 0 3168 1584" xmlns="http://www.w3.org/2000/svg" version="1.1">
 <metadata>
  <rdf:RDF xmlns:dc="http://purl.org/dc/elements/1.1/" xmlns:cc="http://creativecommons.org/ns#" xmlns:rdf="http://www.w3.org/1999/02/22-rdf-syntax-ns#">
   <cc:Work>
    <dc:type rdf:resource="http://purl.org/dc/dcmitype/StillImage"/>
    <dc:date>2024-08-29T23:33:43.710681</dc:date>
    <dc:format>image/svg+xml</dc:format>
    <dc:creator>
     <cc:Agent>
      <dc:title>Matplotlib v3.9.2, https://matplotlib.org/</dc:title>
     </cc:Agent>
    </dc:creator>
   </cc:Work>
  </rdf:RDF>
 </metadata>
 <defs>
  <style type="text/css">*{stroke-linejoin: round; stroke-linecap: butt}</style>
 </defs>
 <g id="figure_1">
  <g id="patch_1">
   <path d="M 0 1584 
L 3168 1584 
L 3168 0 
L 0 0 
z
" style="fill: #ffffff"/>
  </g>
  <g id="axes_1">
   <g id="patch_2">
    <path d="M 396 1409.76 
L 2851.2 1409.76 
L 2851.2 190.08 
L 396 190.08 
z
" style="fill: #ffffff"/>
   </g>
   <g id="matplotlib.axis_1">
    <g id="xtick_1">
     <g id="line2d_1">
      <path d="M 507.6 1409.76 
L 507.6 190.08 
" clip-path="url(#p5c05304b59)" style="fill: none; stroke: #b0b0b0; stroke-opacity: 0.56; stroke-width: 0.8; stroke-linecap: square"/>
     </g>
     <g id="line2d_2">
      <defs>
       <path id="md3a01e386a" d="M 0 0 
L 0 3.5 
" style="stroke: #000000; stroke-width: 0.8"/>
      </defs>
      <g>
       <use xlink:href="#md3a01e386a" x="507.6" y="1409.76" style="stroke: #000000; stroke-width: 0.8"/>
      </g>
     </g>
     <g id="text_1">
      <!-- 10点0分 -->
      <g transform="translate(487.546894 1477.416504) rotate(-45) scale(0.2 -0.2)">
       <defs>
        <path id="SimHei-31" d="M 1400 3600 
Q 1075 3275 575 2975 
L 575 3450 
Q 1200 3875 1600 4450 
L 1900 4450 
L 1900 150 
L 1400 150 
L 1400 3600 
z
" transform="scale(0.015625)"/>
        <path id="SimHei-30" d="M 225 2537 
Q 250 3200 412 3587 
Q 575 3975 875 4225 
Q 1175 4475 1612 4475 
Q 2050 4475 2375 4112 
Q 2700 3750 2800 3200 
Q 2900 2650 2862 1937 
Q 2825 1225 2612 775 
Q 2400 325 1975 150 
Q 1550 -25 1125 187 
Q 700 400 525 750 
Q 350 1100 275 1487 
Q 200 1875 225 2537 
z
M 750 2687 
Q 675 2000 800 1462 
Q 925 925 1212 700 
Q 1500 475 1800 612 
Q 2100 750 2237 1162 
Q 2375 1575 2375 2062 
Q 2375 2550 2337 2950 
Q 2300 3350 2112 3675 
Q 1925 4000 1612 4012 
Q 1300 4025 1062 3700 
Q 825 3375 750 2687 
z
" transform="scale(0.015625)"/>
        <path id="SimHei-70b9" d="M 3325 5200 
Q 3300 4925 3300 4375 
L 4900 4375 
Q 5275 4375 5725 4400 
L 5725 3925 
Q 5300 3950 4900 3950 
L 3300 3950 
L 3300 3225 
L 5225 3225 
Q 5200 2700 5200 2150 
Q 5200 1625 5225 1175 
L 1175 1175 
Q 1200 1625 1200 2175 
Q 1200 2725 1175 3225 
L 2775 3225 
L 2775 4500 
Q 2775 4900 2750 5200 
L 3325 5200 
z
M 4700 1600 
L 4700 2800 
L 1725 2800 
L 1725 1600 
L 4700 1600 
z
M 1500 750 
Q 1025 -250 825 -625 
Q 625 -475 325 -375 
Q 650 50 950 925 
Q 1200 800 1500 750 
z
M 5325 850 
Q 5775 150 6075 -350 
Q 5925 -425 5575 -625 
Q 5375 -150 4900 575 
Q 5150 700 5325 850 
z
M 3975 -575 
Q 3775 -100 3400 575 
Q 3575 675 3825 825 
Q 4350 -75 4450 -325 
Q 4200 -450 3975 -575 
z
M 2375 -575 
Q 2350 -300 1975 550 
Q 2200 625 2425 775 
Q 2800 -75 2900 -350 
Q 2625 -450 2375 -575 
z
" transform="scale(0.015625)"/>
        <path id="SimHei-5206" d="M 1000 -650 
Q 825 -375 575 -225 
Q 975 -75 1300 137 
Q 1625 350 1875 662 
Q 2125 975 2250 1350 
Q 2375 1725 2425 2275 
Q 1850 2275 1500 2250 
L 1500 2775 
Q 1900 2750 2525 2750 
L 5025 2750 
Q 4975 2375 4950 2100 
L 4750 250 
Q 4700 -200 4350 -350 
Q 4000 -500 3575 -525 
Q 3550 -275 3325 50 
Q 3850 25 4037 87 
Q 4225 150 4275 525 
L 4450 2275 
L 2950 2275 
Q 2875 1625 2737 1187 
Q 2600 750 2350 425 
Q 2100 100 1750 -175 
Q 1400 -450 1000 -650 
z
M 3950 5175 
Q 4125 4650 4662 3975 
Q 5200 3300 6175 2800 
Q 5975 2625 5775 2275 
Q 5325 2600 4987 2887 
Q 4650 3175 4425 3425 
Q 4200 3675 3925 4137 
Q 3650 4600 3475 5000 
Q 3750 5075 3950 5175 
z
M 2700 4825 
Q 2475 4425 2325 4125 
Q 2175 3825 2025 3587 
Q 1875 3350 1575 2950 
Q 1275 2550 850 2125 
Q 625 2350 400 2475 
Q 900 2925 1187 3300 
Q 1475 3675 1737 4112 
Q 2000 4550 2200 5075 
Q 2400 4925 2700 4825 
z
" transform="scale(0.015625)"/>
       </defs>
       <use xlink:href="#SimHei-31"/>
       <use xlink:href="#SimHei-30" x="50"/>
       <use xlink:href="#SimHei-70b9" x="100"/>
       <use xlink:href="#SimHei-30" x="200"/>
       <use xlink:href="#SimHei-5206" x="250"/>
      </g>
     </g>
    </g>
    <g id="xtick_2">
     <g id="line2d_3">
      <path d="M 563.868908 1409.76 
L 563.868908 190.08 
" clip-path="url(#p5c05304b59)" style="fill: none; stroke: #b0b0b0; stroke-opacity: 0.56; stroke-width: 0.8; stroke-linecap: square"/>
     </g>
     <g id="line2d_4">
      <g>
       <use xlink:href="#md3a01e386a" x="563.868908" y="1409.76" style="stroke: #000000; stroke-width: 0.8"/>
      </g>
     </g>
     <g id="text_2">
      <!-- 10点3分 -->
      <g transform="translate(543.815801 1477.416504) rotate(-45) scale(0.2 -0.2)">
       <defs>
        <path id="SimHei-33" d="M 250 1225 
L 700 1300 
Q 800 975 1025 762 
Q 1250 550 1587 562 
Q 1925 575 2125 837 
Q 2325 1100 2300 1437 
Q 2275 1775 2037 1962 
Q 1800 2150 1275 2225 
L 1275 2550 
Q 1800 2600 2037 2825 
Q 2275 3050 2250 3412 
Q 2225 3775 1925 3937 
Q 1625 4100 1287 3975 
Q 950 3850 750 3275 
L 300 3350 
Q 450 3800 712 4100 
Q 975 4400 1425 4450 
Q 1875 4500 2212 4337 
Q 2550 4175 2687 3837 
Q 2825 3500 2725 3100 
Q 2625 2700 2150 2400 
Q 2500 2250 2687 1950 
Q 2875 1650 2812 1162 
Q 2750 675 2375 375 
Q 2000 75 1525 87 
Q 1050 100 700 387 
Q 350 675 250 1225 
z
" transform="scale(0.015625)"/>
       </defs>
       <use xlink:href="#SimHei-31"/>
       <use xlink:href="#SimHei-30" x="50"/>
       <use xlink:href="#SimHei-70b9" x="100"/>
       <use xlink:href="#SimHei-33" x="200"/>
       <use xlink:href="#SimHei-5206" x="250"/>
      </g>
     </g>
    </g>
    <g id="xtick_3">
     <g id="line2d_5">
      <path d="M 620.137815 1409.76 
L 620.137815 190.08 
" clip-path="url(#p5c05304b59)" style="fill: none; stroke: #b0b0b0; stroke-opacity: 0.56; stroke-width: 0.8; stroke-linecap: square"/>
     </g>
     <g id="line2d_6">
      <g>
       <use xlink:href="#md3a01e386a" x="620.137815" y="1409.76" style="stroke: #000000; stroke-width: 0.8"/>
      </g>
     </g>
     <g id="text_3">
      <!-- 10点6分 -->
      <g transform="translate(600.084709 1477.416504) rotate(-45) scale(0.2 -0.2)">
       <defs>
        <path id="SimHei-36" d="M 250 1612 
Q 275 1975 387 2225 
Q 500 2475 725 2850 
L 1750 4450 
L 2325 4450 
L 1275 2800 
Q 1950 2975 2350 2750 
Q 2750 2525 2887 2237 
Q 3025 1950 3037 1612 
Q 3050 1275 2937 950 
Q 2825 625 2537 362 
Q 2250 100 1737 75 
Q 1225 50 862 262 
Q 500 475 362 862 
Q 225 1250 250 1612 
z
M 1025 787 
Q 1250 550 1625 525 
Q 2000 500 2250 775 
Q 2500 1050 2500 1575 
Q 2500 2100 2187 2300 
Q 1875 2500 1487 2450 
Q 1100 2400 925 2075 
Q 750 1750 775 1387 
Q 800 1025 1025 787 
z
" transform="scale(0.015625)"/>
       </defs>
       <use xlink:href="#SimHei-31"/>
       <use xlink:href="#SimHei-30" x="50"/>
       <use xlink:href="#SimHei-70b9" x="100"/>
       <use xlink:href="#SimHei-36" x="200"/>
       <use xlink:href="#SimHei-5206" x="250"/>
      </g>
     </g>
    </g>
    <g id="xtick_4">
     <g id="line2d_7">
      <path d="M 676.406723 1409.76 
L 676.406723 190.08 
" clip-path="url(#p5c05304b59)" style="fill: none; stroke: #b0b0b0; stroke-opacity: 0.56; stroke-width: 0.8; stroke-linecap: square"/>
     </g>
     <g id="line2d_8">
      <g>
       <use xlink:href="#md3a01e386a" x="676.406723" y="1409.76" style="stroke: #000000; stroke-width: 0.8"/>
      </g>
     </g>
     <g id="text_4">
      <!-- 10点9分 -->
      <g transform="translate(656.353616 1477.416504) rotate(-45) scale(0.2 -0.2)">
       <defs>
        <path id="SimHei-39" d="M 800 75 
Q 1350 1000 1700 1750 
Q 1075 1650 662 1912 
Q 250 2175 162 2625 
Q 75 3075 175 3437 
Q 275 3800 487 4037 
Q 700 4275 1000 4375 
Q 1300 4475 1537 4475 
Q 1775 4475 2025 4375 
Q 2275 4275 2475 4075 
Q 2675 3875 2750 3662 
Q 2825 3450 2825 3112 
Q 2825 2775 2575 2250 
Q 2325 1725 1350 75 
L 800 75 
z
M 662 2875 
Q 700 2550 937 2337 
Q 1175 2125 1450 2150 
Q 1725 2175 1887 2300 
Q 2050 2425 2200 2725 
Q 2300 3100 2250 3362 
Q 2200 3625 1987 3800 
Q 1775 3975 1525 3975 
Q 1375 4000 1137 3900 
Q 900 3800 762 3500 
Q 625 3200 662 2875 
z
" transform="scale(0.015625)"/>
       </defs>
       <use xlink:href="#SimHei-31"/>
       <use xlink:href="#SimHei-30" x="50"/>
       <use xlink:href="#SimHei-70b9" x="100"/>
       <use xlink:href="#SimHei-39" x="200"/>
       <use xlink:href="#SimHei-5206" x="250"/>
      </g>
     </g>
    </g>
    <g id="xtick_5">
     <g id="line2d_9">
      <path d="M 732.67563 1409.76 
L 732.67563 190.08 
" clip-path="url(#p5c05304b59)" style="fill: none; stroke: #b0b0b0; stroke-opacity: 0.56; stroke-width: 0.8; stroke-linecap: square"/>
     </g>
     <g id="line2d_10">
      <g>
       <use xlink:href="#md3a01e386a" x="732.67563" y="1409.76" style="stroke: #000000; stroke-width: 0.8"/>
      </g>
     </g>
     <g id="text_5">
      <!-- 10点12分 -->
      <g transform="translate(709.08699 1484.487571) rotate(-45) scale(0.2 -0.2)">
       <defs>
        <path id="SimHei-32" d="M 300 250 
Q 325 625 650 925 
Q 975 1225 1475 1862 
Q 1975 2500 2125 2850 
Q 2275 3200 2237 3450 
Q 2200 3700 2000 3862 
Q 1800 4025 1537 4000 
Q 1275 3975 1037 3800 
Q 800 3625 675 3275 
L 200 3350 
Q 400 3925 712 4187 
Q 1025 4450 1450 4475 
Q 1700 4500 1900 4462 
Q 2100 4425 2312 4287 
Q 2525 4150 2662 3875 
Q 2800 3600 2762 3212 
Q 2725 2825 2375 2287 
Q 2025 1750 1025 600 
L 2825 600 
L 2825 150 
L 300 150 
L 300 250 
z
" transform="scale(0.015625)"/>
       </defs>
       <use xlink:href="#SimHei-31"/>
       <use xlink:href="#SimHei-30" x="50"/>
       <use xlink:href="#SimHei-70b9" x="100"/>
       <use xlink:href="#SimHei-31" x="200"/>
       <use xlink:href="#SimHei-32" x="250"/>
       <use xlink:href="#SimHei-5206" x="300"/>
      </g>
     </g>
    </g>
    <g id="xtick_6">
     <g id="line2d_11">
      <path d="M 788.944538 1409.76 
L 788.944538 190.08 
" clip-path="url(#p5c05304b59)" style="fill: none; stroke: #b0b0b0; stroke-opacity: 0.56; stroke-width: 0.8; stroke-linecap: square"/>
     </g>
     <g id="line2d_12">
      <g>
       <use xlink:href="#md3a01e386a" x="788.944538" y="1409.76" style="stroke: #000000; stroke-width: 0.8"/>
      </g>
     </g>
     <g id="text_6">
      <!-- 10点15分 -->
      <g transform="translate(765.355898 1484.487571) rotate(-45) scale(0.2 -0.2)">
       <defs>
        <path id="SimHei-35" d="M 550 1325 
Q 725 650 1150 575 
Q 1575 500 1837 662 
Q 2100 825 2212 1087 
Q 2325 1350 2312 1675 
Q 2300 2000 2137 2225 
Q 1975 2450 1725 2525 
Q 1475 2600 1162 2525 
Q 850 2450 650 2175 
L 225 2225 
Q 275 2375 700 4375 
L 2675 4375 
L 2675 3925 
L 1075 3925 
Q 950 3250 825 2850 
Q 1200 3025 1525 3012 
Q 1850 3000 2150 2862 
Q 2450 2725 2587 2487 
Q 2725 2250 2787 2012 
Q 2850 1775 2837 1500 
Q 2825 1225 2725 937 
Q 2625 650 2425 462 
Q 2225 275 1937 162 
Q 1650 50 1275 75 
Q 900 100 562 350 
Q 225 600 100 1200 
L 550 1325 
z
" transform="scale(0.015625)"/>
       </defs>
       <use xlink:href="#SimHei-31"/>
       <use xlink:href="#SimHei-30" x="50"/>
       <use xlink:href="#SimHei-70b9" x="100"/>
       <use xlink:href="#SimHei-31" x="200"/>
       <use xlink:href="#SimHei-35" x="250"/>
       <use xlink:href="#SimHei-5206" x="300"/>
      </g>
     </g>
    </g>
    <g id="xtick_7">
     <g id="line2d_13">
      <path d="M 845.213445 1409.76 
L 845.213445 190.08 
" clip-path="url(#p5c05304b59)" style="fill: none; stroke: #b0b0b0; stroke-opacity: 0.56; stroke-width: 0.8; stroke-linecap: square"/>
     </g>
     <g id="line2d_14">
      <g>
       <use xlink:href="#md3a01e386a" x="845.213445" y="1409.76" style="stroke: #000000; stroke-width: 0.8"/>
      </g>
     </g>
     <g id="text_7">
      <!-- 10点18分 -->
      <g transform="translate(821.624805 1484.487571) rotate(-45) scale(0.2 -0.2)">
       <defs>
        <path id="SimHei-38" d="M 175 1375 
Q 175 1675 325 1962 
Q 475 2250 825 2425 
Q 525 2600 425 2812 
Q 325 3025 312 3300 
Q 300 3575 387 3775 
Q 475 3975 650 4150 
Q 825 4325 1037 4387 
Q 1250 4450 1500 4450 
Q 1750 4450 1950 4400 
Q 2150 4350 2375 4187 
Q 2600 4025 2700 3725 
Q 2800 3425 2687 3025 
Q 2575 2625 2100 2400 
Q 2525 2275 2700 2012 
Q 2875 1750 2875 1375 
Q 2875 1000 2762 775 
Q 2650 550 2512 400 
Q 2375 250 2137 162 
Q 1900 75 1537 75 
Q 1175 75 912 162 
Q 650 250 475 425 
Q 300 600 237 837 
Q 175 1075 175 1375 
z
M 687 1400 
Q 675 1100 787 875 
Q 900 650 1200 587 
Q 1500 525 1825 600 
Q 2150 675 2275 950 
Q 2400 1225 2362 1500 
Q 2325 1775 2050 1962 
Q 1775 2150 1450 2125 
Q 1125 2100 912 1900 
Q 700 1700 687 1400 
z
M 775 3350 
Q 775 3100 950 2875 
Q 1125 2650 1500 2650 
Q 1875 2650 2062 2875 
Q 2250 3100 2237 3412 
Q 2225 3725 2012 3875 
Q 1800 4025 1437 4000 
Q 1075 3975 925 3787 
Q 775 3600 775 3350 
z
" transform="scale(0.015625)"/>
       </defs>
       <use xlink:href="#SimHei-31"/>
       <use xlink:href="#SimHei-30" x="50"/>
       <use xlink:href="#SimHei-70b9" x="100"/>
       <use xlink:href="#SimHei-31" x="200"/>
       <use xlink:href="#SimHei-38" x="250"/>
       <use xlink:href="#SimHei-5206" x="300"/>
      </g>
     </g>
    </g>
    <g id="xtick_8">
     <g id="line2d_15">
      <path d="M 901.482353 1409.76 
L 901.482353 190.08 
" clip-path="url(#p5c05304b59)" style="fill: none; stroke: #b0b0b0; stroke-opacity: 0.56; stroke-width: 0.8; stroke-linecap: square"/>
     </g>
     <g id="line2d_16">
      <g>
       <use xlink:href="#md3a01e386a" x="901.482353" y="1409.76" style="stroke: #000000; stroke-width: 0.8"/>
      </g>
     </g>
     <g id="text_8">
      <!-- 10点21分 -->
      <g transform="translate(877.893713 1484.487571) rotate(-45) scale(0.2 -0.2)">
       <use xlink:href="#SimHei-31"/>
       <use xlink:href="#SimHei-30" x="50"/>
       <use xlink:href="#SimHei-70b9" x="100"/>
       <use xlink:href="#SimHei-32" x="200"/>
       <use xlink:href="#SimHei-31" x="250"/>
       <use xlink:href="#SimHei-5206" x="300"/>
      </g>
     </g>
    </g>
    <g id="xtick_9">
     <g id="line2d_17">
      <path d="M 957.751261 1409.76 
L 957.751261 190.08 
" clip-path="url(#p5c05304b59)" style="fill: none; stroke: #b0b0b0; stroke-opacity: 0.56; stroke-width: 0.8; stroke-linecap: square"/>
     </g>
     <g id="line2d_18">
      <g>
       <use xlink:href="#md3a01e386a" x="957.751261" y="1409.76" style="stroke: #000000; stroke-width: 0.8"/>
      </g>
     </g>
     <g id="text_9">
      <!-- 10点24分 -->
      <g transform="translate(934.16262 1484.487571) rotate(-45) scale(0.2 -0.2)">
       <defs>
        <path id="SimHei-34" d="M 2000 1100 
L 75 1100 
L 75 1525 
L 2100 4450 
L 2475 4450 
L 2475 1525 
L 3075 1525 
L 3075 1100 
L 2475 1100 
L 2475 150 
L 2000 150 
L 2000 1100 
z
M 2000 1525 
L 2000 3500 
L 600 1525 
L 2000 1525 
z
" transform="scale(0.015625)"/>
       </defs>
       <use xlink:href="#SimHei-31"/>
       <use xlink:href="#SimHei-30" x="50"/>
       <use xlink:href="#SimHei-70b9" x="100"/>
       <use xlink:href="#SimHei-32" x="200"/>
       <use xlink:href="#SimHei-34" x="250"/>
       <use xlink:href="#SimHei-5206" x="300"/>
      </g>
     </g>
    </g>
    <g id="xtick_10">
     <g id="line2d_19">
      <path d="M 1014.020168 1409.76 
L 1014.020168 190.08 
" clip-path="url(#p5c05304b59)" style="fill: none; stroke: #b0b0b0; stroke-opacity: 0.56; stroke-width: 0.8; stroke-linecap: square"/>
     </g>
     <g id="line2d_20">
      <g>
       <use xlink:href="#md3a01e386a" x="1014.020168" y="1409.76" style="stroke: #000000; stroke-width: 0.8"/>
      </g>
     </g>
     <g id="text_10">
      <!-- 10点27分 -->
      <g transform="translate(990.431528 1484.487571) rotate(-45) scale(0.2 -0.2)">
       <defs>
        <path id="SimHei-37" d="M 850 150 
Q 1300 2050 2425 3925 
L 275 3925 
L 275 4375 
L 2950 4375 
L 2950 3950 
Q 1775 2050 1400 150 
L 850 150 
z
" transform="scale(0.015625)"/>
       </defs>
       <use xlink:href="#SimHei-31"/>
       <use xlink:href="#SimHei-30" x="50"/>
       <use xlink:href="#SimHei-70b9" x="100"/>
       <use xlink:href="#SimHei-32" x="200"/>
       <use xlink:href="#SimHei-37" x="250"/>
       <use xlink:href="#SimHei-5206" x="300"/>
      </g>
     </g>
    </g>
    <g id="xtick_11">
     <g id="line2d_21">
      <path d="M 1070.289076 1409.76 
L 1070.289076 190.08 
" clip-path="url(#p5c05304b59)" style="fill: none; stroke: #b0b0b0; stroke-opacity: 0.56; stroke-width: 0.8; stroke-linecap: square"/>
     </g>
     <g id="line2d_22">
      <g>
       <use xlink:href="#md3a01e386a" x="1070.289076" y="1409.76" style="stroke: #000000; stroke-width: 0.8"/>
      </g>
     </g>
     <g id="text_11">
      <!-- 10点30分 -->
      <g transform="translate(1046.700435 1484.487571) rotate(-45) scale(0.2 -0.2)">
       <use xlink:href="#SimHei-31"/>
       <use xlink:href="#SimHei-30" x="50"/>
       <use xlink:href="#SimHei-70b9" x="100"/>
       <use xlink:href="#SimHei-33" x="200"/>
       <use xlink:href="#SimHei-30" x="250"/>
       <use xlink:href="#SimHei-5206" x="300"/>
      </g>
     </g>
    </g>
    <g id="xtick_12">
     <g id="line2d_23">
      <path d="M 1126.557983 1409.76 
L 1126.557983 190.08 
" clip-path="url(#p5c05304b59)" style="fill: none; stroke: #b0b0b0; stroke-opacity: 0.56; stroke-width: 0.8; stroke-linecap: square"/>
     </g>
     <g id="line2d_24">
      <g>
       <use xlink:href="#md3a01e386a" x="1126.557983" y="1409.76" style="stroke: #000000; stroke-width: 0.8"/>
      </g>
     </g>
     <g id="text_12">
      <!-- 10点33分 -->
      <g transform="translate(1102.969343 1484.487571) rotate(-45) scale(0.2 -0.2)">
       <use xlink:href="#SimHei-31"/>
       <use xlink:href="#SimHei-30" x="50"/>
       <use xlink:href="#SimHei-70b9" x="100"/>
       <use xlink:href="#SimHei-33" x="200"/>
       <use xlink:href="#SimHei-33" x="250"/>
       <use xlink:href="#SimHei-5206" x="300"/>
      </g>
     </g>
    </g>
    <g id="xtick_13">
     <g id="line2d_25">
      <path d="M 1182.826891 1409.76 
L 1182.826891 190.08 
" clip-path="url(#p5c05304b59)" style="fill: none; stroke: #b0b0b0; stroke-opacity: 0.56; stroke-width: 0.8; stroke-linecap: square"/>
     </g>
     <g id="line2d_26">
      <g>
       <use xlink:href="#md3a01e386a" x="1182.826891" y="1409.76" style="stroke: #000000; stroke-width: 0.8"/>
      </g>
     </g>
     <g id="text_13">
      <!-- 10点36分 -->
      <g transform="translate(1159.23825 1484.487571) rotate(-45) scale(0.2 -0.2)">
       <use xlink:href="#SimHei-31"/>
       <use xlink:href="#SimHei-30" x="50"/>
       <use xlink:href="#SimHei-70b9" x="100"/>
       <use xlink:href="#SimHei-33" x="200"/>
       <use xlink:href="#SimHei-36" x="250"/>
       <use xlink:href="#SimHei-5206" x="300"/>
      </g>
     </g>
    </g>
    <g id="xtick_14">
     <g id="line2d_27">
      <path d="M 1239.095798 1409.76 
L 1239.095798 190.08 
" clip-path="url(#p5c05304b59)" style="fill: none; stroke: #b0b0b0; stroke-opacity: 0.56; stroke-width: 0.8; stroke-linecap: square"/>
     </g>
     <g id="line2d_28">
      <g>
       <use xlink:href="#md3a01e386a" x="1239.095798" y="1409.76" style="stroke: #000000; stroke-width: 0.8"/>
      </g>
     </g>
     <g id="text_14">
      <!-- 10点39分 -->
      <g transform="translate(1215.507158 1484.487571) rotate(-45) scale(0.2 -0.2)">
       <use xlink:href="#SimHei-31"/>
       <use xlink:href="#SimHei-30" x="50"/>
       <use xlink:href="#SimHei-70b9" x="100"/>
       <use xlink:href="#SimHei-33" x="200"/>
       <use xlink:href="#SimHei-39" x="250"/>
       <use xlink:href="#SimHei-5206" x="300"/>
      </g>
     </g>
    </g>
    <g id="xtick_15">
     <g id="line2d_29">
      <path d="M 1295.364706 1409.76 
L 1295.364706 190.08 
" clip-path="url(#p5c05304b59)" style="fill: none; stroke: #b0b0b0; stroke-opacity: 0.56; stroke-width: 0.8; stroke-linecap: square"/>
     </g>
     <g id="line2d_30">
      <g>
       <use xlink:href="#md3a01e386a" x="1295.364706" y="1409.76" style="stroke: #000000; stroke-width: 0.8"/>
      </g>
     </g>
     <g id="text_15">
      <!-- 10点42分 -->
      <g transform="translate(1271.776066 1484.487571) rotate(-45) scale(0.2 -0.2)">
       <use xlink:href="#SimHei-31"/>
       <use xlink:href="#SimHei-30" x="50"/>
       <use xlink:href="#SimHei-70b9" x="100"/>
       <use xlink:href="#SimHei-34" x="200"/>
       <use xlink:href="#SimHei-32" x="250"/>
       <use xlink:href="#SimHei-5206" x="300"/>
      </g>
     </g>
    </g>
    <g id="xtick_16">
     <g id="line2d_31">
      <path d="M 1351.633613 1409.76 
L 1351.633613 190.08 
" clip-path="url(#p5c05304b59)" style="fill: none; stroke: #b0b0b0; stroke-opacity: 0.56; stroke-width: 0.8; stroke-linecap: square"/>
     </g>
     <g id="line2d_32">
      <g>
       <use xlink:href="#md3a01e386a" x="1351.633613" y="1409.76" style="stroke: #000000; stroke-width: 0.8"/>
      </g>
     </g>
     <g id="text_16">
      <!-- 10点45分 -->
      <g transform="translate(1328.044973 1484.487571) rotate(-45) scale(0.2 -0.2)">
       <use xlink:href="#SimHei-31"/>
       <use xlink:href="#SimHei-30" x="50"/>
       <use xlink:href="#SimHei-70b9" x="100"/>
       <use xlink:href="#SimHei-34" x="200"/>
       <use xlink:href="#SimHei-35" x="250"/>
       <use xlink:href="#SimHei-5206" x="300"/>
      </g>
     </g>
    </g>
    <g id="xtick_17">
     <g id="line2d_33">
      <path d="M 1407.902521 1409.76 
L 1407.902521 190.08 
" clip-path="url(#p5c05304b59)" style="fill: none; stroke: #b0b0b0; stroke-opacity: 0.56; stroke-width: 0.8; stroke-linecap: square"/>
     </g>
     <g id="line2d_34">
      <g>
       <use xlink:href="#md3a01e386a" x="1407.902521" y="1409.76" style="stroke: #000000; stroke-width: 0.8"/>
      </g>
     </g>
     <g id="text_17">
      <!-- 10点48分 -->
      <g transform="translate(1384.313881 1484.487571) rotate(-45) scale(0.2 -0.2)">
       <use xlink:href="#SimHei-31"/>
       <use xlink:href="#SimHei-30" x="50"/>
       <use xlink:href="#SimHei-70b9" x="100"/>
       <use xlink:href="#SimHei-34" x="200"/>
       <use xlink:href="#SimHei-38" x="250"/>
       <use xlink:href="#SimHei-5206" x="300"/>
      </g>
     </g>
    </g>
    <g id="xtick_18">
     <g id="line2d_35">
      <path d="M 1464.171429 1409.76 
L 1464.171429 190.08 
" clip-path="url(#p5c05304b59)" style="fill: none; stroke: #b0b0b0; stroke-opacity: 0.56; stroke-width: 0.8; stroke-linecap: square"/>
     </g>
     <g id="line2d_36">
      <g>
       <use xlink:href="#md3a01e386a" x="1464.171429" y="1409.76" style="stroke: #000000; stroke-width: 0.8"/>
      </g>
     </g>
     <g id="text_18">
      <!-- 10点51分 -->
      <g transform="translate(1440.582788 1484.487571) rotate(-45) scale(0.2 -0.2)">
       <use xlink:href="#SimHei-31"/>
       <use xlink:href="#SimHei-30" x="50"/>
       <use xlink:href="#SimHei-70b9" x="100"/>
       <use xlink:href="#SimHei-35" x="200"/>
       <use xlink:href="#SimHei-31" x="250"/>
       <use xlink:href="#SimHei-5206" x="300"/>
      </g>
     </g>
    </g>
    <g id="xtick_19">
     <g id="line2d_37">
      <path d="M 1520.440336 1409.76 
L 1520.440336 190.08 
" clip-path="url(#p5c05304b59)" style="fill: none; stroke: #b0b0b0; stroke-opacity: 0.56; stroke-width: 0.8; stroke-linecap: square"/>
     </g>
     <g id="line2d_38">
      <g>
       <use xlink:href="#md3a01e386a" x="1520.440336" y="1409.76" style="stroke: #000000; stroke-width: 0.8"/>
      </g>
     </g>
     <g id="text_19">
      <!-- 10点54分 -->
      <g transform="translate(1496.851696 1484.487571) rotate(-45) scale(0.2 -0.2)">
       <use xlink:href="#SimHei-31"/>
       <use xlink:href="#SimHei-30" x="50"/>
       <use xlink:href="#SimHei-70b9" x="100"/>
       <use xlink:href="#SimHei-35" x="200"/>
       <use xlink:href="#SimHei-34" x="250"/>
       <use xlink:href="#SimHei-5206" x="300"/>
      </g>
     </g>
    </g>
    <g id="xtick_20">
     <g id="line2d_39">
      <path d="M 1576.709244 1409.76 
L 1576.709244 190.08 
" clip-path="url(#p5c05304b59)" style="fill: none; stroke: #b0b0b0; stroke-opacity: 0.56; stroke-width: 0.8; stroke-linecap: square"/>
     </g>
     <g id="line2d_40">
      <g>
       <use xlink:href="#md3a01e386a" x="1576.709244" y="1409.76" style="stroke: #000000; stroke-width: 0.8"/>
      </g>
     </g>
     <g id="text_20">
      <!-- 10点57分 -->
      <g transform="translate(1553.120603 1484.487571) rotate(-45) scale(0.2 -0.2)">
       <use xlink:href="#SimHei-31"/>
       <use xlink:href="#SimHei-30" x="50"/>
       <use xlink:href="#SimHei-70b9" x="100"/>
       <use xlink:href="#SimHei-35" x="200"/>
       <use xlink:href="#SimHei-37" x="250"/>
       <use xlink:href="#SimHei-5206" x="300"/>
      </g>
     </g>
    </g>
    <g id="xtick_21">
     <g id="line2d_41">
      <path d="M 1632.978151 1409.76 
L 1632.978151 190.08 
" clip-path="url(#p5c05304b59)" style="fill: none; stroke: #b0b0b0; stroke-opacity: 0.56; stroke-width: 0.8; stroke-linecap: square"/>
     </g>
     <g id="line2d_42">
      <g>
       <use xlink:href="#md3a01e386a" x="1632.978151" y="1409.76" style="stroke: #000000; stroke-width: 0.8"/>
      </g>
     </g>
     <g id="text_21">
      <!-- 11点0分 -->
      <g transform="translate(1612.925045 1477.416504) rotate(-45) scale(0.2 -0.2)">
       <use xlink:href="#SimHei-31"/>
       <use xlink:href="#SimHei-31" x="50"/>
       <use xlink:href="#SimHei-70b9" x="100"/>
       <use xlink:href="#SimHei-30" x="200"/>
       <use xlink:href="#SimHei-5206" x="250"/>
      </g>
     </g>
    </g>
    <g id="xtick_22">
     <g id="line2d_43">
      <path d="M 1689.247059 1409.76 
L 1689.247059 190.08 
" clip-path="url(#p5c05304b59)" style="fill: none; stroke: #b0b0b0; stroke-opacity: 0.56; stroke-width: 0.8; stroke-linecap: square"/>
     </g>
     <g id="line2d_44">
      <g>
       <use xlink:href="#md3a01e386a" x="1689.247059" y="1409.76" style="stroke: #000000; stroke-width: 0.8"/>
      </g>
     </g>
     <g id="text_22">
      <!-- 11点3分 -->
      <g transform="translate(1669.193952 1477.416504) rotate(-45) scale(0.2 -0.2)">
       <use xlink:href="#SimHei-31"/>
       <use xlink:href="#SimHei-31" x="50"/>
       <use xlink:href="#SimHei-70b9" x="100"/>
       <use xlink:href="#SimHei-33" x="200"/>
       <use xlink:href="#SimHei-5206" x="250"/>
      </g>
     </g>
    </g>
    <g id="xtick_23">
     <g id="line2d_45">
      <path d="M 1745.515966 1409.76 
L 1745.515966 190.08 
" clip-path="url(#p5c05304b59)" style="fill: none; stroke: #b0b0b0; stroke-opacity: 0.56; stroke-width: 0.8; stroke-linecap: square"/>
     </g>
     <g id="line2d_46">
      <g>
       <use xlink:href="#md3a01e386a" x="1745.515966" y="1409.76" style="stroke: #000000; stroke-width: 0.8"/>
      </g>
     </g>
     <g id="text_23">
      <!-- 11点6分 -->
      <g transform="translate(1725.46286 1477.416504) rotate(-45) scale(0.2 -0.2)">
       <use xlink:href="#SimHei-31"/>
       <use xlink:href="#SimHei-31" x="50"/>
       <use xlink:href="#SimHei-70b9" x="100"/>
       <use xlink:href="#SimHei-36" x="200"/>
       <use xlink:href="#SimHei-5206" x="250"/>
      </g>
     </g>
    </g>
    <g id="xtick_24">
     <g id="line2d_47">
      <path d="M 1801.784874 1409.76 
L 1801.784874 190.08 
" clip-path="url(#p5c05304b59)" style="fill: none; stroke: #b0b0b0; stroke-opacity: 0.56; stroke-width: 0.8; stroke-linecap: square"/>
     </g>
     <g id="line2d_48">
      <g>
       <use xlink:href="#md3a01e386a" x="1801.784874" y="1409.76" style="stroke: #000000; stroke-width: 0.8"/>
      </g>
     </g>
     <g id="text_24">
      <!-- 11点9分 -->
      <g transform="translate(1781.731768 1477.416504) rotate(-45) scale(0.2 -0.2)">
       <use xlink:href="#SimHei-31"/>
       <use xlink:href="#SimHei-31" x="50"/>
       <use xlink:href="#SimHei-70b9" x="100"/>
       <use xlink:href="#SimHei-39" x="200"/>
       <use xlink:href="#SimHei-5206" x="250"/>
      </g>
     </g>
    </g>
    <g id="xtick_25">
     <g id="line2d_49">
      <path d="M 1858.053782 1409.76 
L 1858.053782 190.08 
" clip-path="url(#p5c05304b59)" style="fill: none; stroke: #b0b0b0; stroke-opacity: 0.56; stroke-width: 0.8; stroke-linecap: square"/>
     </g>
     <g id="line2d_50">
      <g>
       <use xlink:href="#md3a01e386a" x="1858.053782" y="1409.76" style="stroke: #000000; stroke-width: 0.8"/>
      </g>
     </g>
     <g id="text_25">
      <!-- 11点12分 -->
      <g transform="translate(1834.465141 1484.487571) rotate(-45) scale(0.2 -0.2)">
       <use xlink:href="#SimHei-31"/>
       <use xlink:href="#SimHei-31" x="50"/>
       <use xlink:href="#SimHei-70b9" x="100"/>
       <use xlink:href="#SimHei-31" x="200"/>
       <use xlink:href="#SimHei-32" x="250"/>
       <use xlink:href="#SimHei-5206" x="300"/>
      </g>
     </g>
    </g>
    <g id="xtick_26">
     <g id="line2d_51">
      <path d="M 1914.322689 1409.76 
L 1914.322689 190.08 
" clip-path="url(#p5c05304b59)" style="fill: none; stroke: #b0b0b0; stroke-opacity: 0.56; stroke-width: 0.8; stroke-linecap: square"/>
     </g>
     <g id="line2d_52">
      <g>
       <use xlink:href="#md3a01e386a" x="1914.322689" y="1409.76" style="stroke: #000000; stroke-width: 0.8"/>
      </g>
     </g>
     <g id="text_26">
      <!-- 11点15分 -->
      <g transform="translate(1890.734049 1484.487571) rotate(-45) scale(0.2 -0.2)">
       <use xlink:href="#SimHei-31"/>
       <use xlink:href="#SimHei-31" x="50"/>
       <use xlink:href="#SimHei-70b9" x="100"/>
       <use xlink:href="#SimHei-31" x="200"/>
       <use xlink:href="#SimHei-35" x="250"/>
       <use xlink:href="#SimHei-5206" x="300"/>
      </g>
     </g>
    </g>
    <g id="xtick_27">
     <g id="line2d_53">
      <path d="M 1970.591597 1409.76 
L 1970.591597 190.08 
" clip-path="url(#p5c05304b59)" style="fill: none; stroke: #b0b0b0; stroke-opacity: 0.56; stroke-width: 0.8; stroke-linecap: square"/>
     </g>
     <g id="line2d_54">
      <g>
       <use xlink:href="#md3a01e386a" x="1970.591597" y="1409.76" style="stroke: #000000; stroke-width: 0.8"/>
      </g>
     </g>
     <g id="text_27">
      <!-- 11点18分 -->
      <g transform="translate(1947.002956 1484.487571) rotate(-45) scale(0.2 -0.2)">
       <use xlink:href="#SimHei-31"/>
       <use xlink:href="#SimHei-31" x="50"/>
       <use xlink:href="#SimHei-70b9" x="100"/>
       <use xlink:href="#SimHei-31" x="200"/>
       <use xlink:href="#SimHei-38" x="250"/>
       <use xlink:href="#SimHei-5206" x="300"/>
      </g>
     </g>
    </g>
    <g id="xtick_28">
     <g id="line2d_55">
      <path d="M 2026.860504 1409.76 
L 2026.860504 190.08 
" clip-path="url(#p5c05304b59)" style="fill: none; stroke: #b0b0b0; stroke-opacity: 0.56; stroke-width: 0.8; stroke-linecap: square"/>
     </g>
     <g id="line2d_56">
      <g>
       <use xlink:href="#md3a01e386a" x="2026.860504" y="1409.76" style="stroke: #000000; stroke-width: 0.8"/>
      </g>
     </g>
     <g id="text_28">
      <!-- 11点21分 -->
      <g transform="translate(2003.271864 1484.487571) rotate(-45) scale(0.2 -0.2)">
       <use xlink:href="#SimHei-31"/>
       <use xlink:href="#SimHei-31" x="50"/>
       <use xlink:href="#SimHei-70b9" x="100"/>
       <use xlink:href="#SimHei-32" x="200"/>
       <use xlink:href="#SimHei-31" x="250"/>
       <use xlink:href="#SimHei-5206" x="300"/>
      </g>
     </g>
    </g>
    <g id="xtick_29">
     <g id="line2d_57">
      <path d="M 2083.129412 1409.76 
L 2083.129412 190.08 
" clip-path="url(#p5c05304b59)" style="fill: none; stroke: #b0b0b0; stroke-opacity: 0.56; stroke-width: 0.8; stroke-linecap: square"/>
     </g>
     <g id="line2d_58">
      <g>
       <use xlink:href="#md3a01e386a" x="2083.129412" y="1409.76" style="stroke: #000000; stroke-width: 0.8"/>
      </g>
     </g>
     <g id="text_29">
      <!-- 11点24分 -->
      <g transform="translate(2059.540771 1484.487571) rotate(-45) scale(0.2 -0.2)">
       <use xlink:href="#SimHei-31"/>
       <use xlink:href="#SimHei-31" x="50"/>
       <use xlink:href="#SimHei-70b9" x="100"/>
       <use xlink:href="#SimHei-32" x="200"/>
       <use xlink:href="#SimHei-34" x="250"/>
       <use xlink:href="#SimHei-5206" x="300"/>
      </g>
     </g>
    </g>
    <g id="xtick_30">
     <g id="line2d_59">
      <path d="M 2139.398319 1409.76 
L 2139.398319 190.08 
" clip-path="url(#p5c05304b59)" style="fill: none; stroke: #b0b0b0; stroke-opacity: 0.56; stroke-width: 0.8; stroke-linecap: square"/>
     </g>
     <g id="line2d_60">
      <g>
       <use xlink:href="#md3a01e386a" x="2139.398319" y="1409.76" style="stroke: #000000; stroke-width: 0.8"/>
      </g>
     </g>
     <g id="text_30">
      <!-- 11点27分 -->
      <g transform="translate(2115.809679 1484.487571) rotate(-45) scale(0.2 -0.2)">
       <use xlink:href="#SimHei-31"/>
       <use xlink:href="#SimHei-31" x="50"/>
       <use xlink:href="#SimHei-70b9" x="100"/>
       <use xlink:href="#SimHei-32" x="200"/>
       <use xlink:href="#SimHei-37" x="250"/>
       <use xlink:href="#SimHei-5206" x="300"/>
      </g>
     </g>
    </g>
    <g id="xtick_31">
     <g id="line2d_61">
      <path d="M 2195.667227 1409.76 
L 2195.667227 190.08 
" clip-path="url(#p5c05304b59)" style="fill: none; stroke: #b0b0b0; stroke-opacity: 0.56; stroke-width: 0.8; stroke-linecap: square"/>
     </g>
     <g id="line2d_62">
      <g>
       <use xlink:href="#md3a01e386a" x="2195.667227" y="1409.76" style="stroke: #000000; stroke-width: 0.8"/>
      </g>
     </g>
     <g id="text_31">
      <!-- 11点30分 -->
      <g transform="translate(2172.078587 1484.487571) rotate(-45) scale(0.2 -0.2)">
       <use xlink:href="#SimHei-31"/>
       <use xlink:href="#SimHei-31" x="50"/>
       <use xlink:href="#SimHei-70b9" x="100"/>
       <use xlink:href="#SimHei-33" x="200"/>
       <use xlink:href="#SimHei-30" x="250"/>
       <use xlink:href="#SimHei-5206" x="300"/>
      </g>
     </g>
    </g>
    <g id="xtick_32">
     <g id="line2d_63">
      <path d="M 2251.936134 1409.76 
L 2251.936134 190.08 
" clip-path="url(#p5c05304b59)" style="fill: none; stroke: #b0b0b0; stroke-opacity: 0.56; stroke-width: 0.8; stroke-linecap: square"/>
     </g>
     <g id="line2d_64">
      <g>
       <use xlink:href="#md3a01e386a" x="2251.936134" y="1409.76" style="stroke: #000000; stroke-width: 0.8"/>
      </g>
     </g>
     <g id="text_32">
      <!-- 11点33分 -->
      <g transform="translate(2228.347494 1484.487571) rotate(-45) scale(0.2 -0.2)">
       <use xlink:href="#SimHei-31"/>
       <use xlink:href="#SimHei-31" x="50"/>
       <use xlink:href="#SimHei-70b9" x="100"/>
       <use xlink:href="#SimHei-33" x="200"/>
       <use xlink:href="#SimHei-33" x="250"/>
       <use xlink:href="#SimHei-5206" x="300"/>
      </g>
     </g>
    </g>
    <g id="xtick_33">
     <g id="line2d_65">
      <path d="M 2308.205042 1409.76 
L 2308.205042 190.08 
" clip-path="url(#p5c05304b59)" style="fill: none; stroke: #b0b0b0; stroke-opacity: 0.56; stroke-width: 0.8; stroke-linecap: square"/>
     </g>
     <g id="line2d_66">
      <g>
       <use xlink:href="#md3a01e386a" x="2308.205042" y="1409.76" style="stroke: #000000; stroke-width: 0.8"/>
      </g>
     </g>
     <g id="text_33">
      <!-- 11点36分 -->
      <g transform="translate(2284.616402 1484.487571) rotate(-45) scale(0.2 -0.2)">
       <use xlink:href="#SimHei-31"/>
       <use xlink:href="#SimHei-31" x="50"/>
       <use xlink:href="#SimHei-70b9" x="100"/>
       <use xlink:href="#SimHei-33" x="200"/>
       <use xlink:href="#SimHei-36" x="250"/>
       <use xlink:href="#SimHei-5206" x="300"/>
      </g>
     </g>
    </g>
    <g id="xtick_34">
     <g id="line2d_67">
      <path d="M 2364.47395 1409.76 
L 2364.47395 190.08 
" clip-path="url(#p5c05304b59)" style="fill: none; stroke: #b0b0b0; stroke-opacity: 0.56; stroke-width: 0.8; stroke-linecap: square"/>
     </g>
     <g id="line2d_68">
      <g>
       <use xlink:href="#md3a01e386a" x="2364.47395" y="1409.76" style="stroke: #000000; stroke-width: 0.8"/>
      </g>
     </g>
     <g id="text_34">
      <!-- 11点39分 -->
      <g transform="translate(2340.885309 1484.487571) rotate(-45) scale(0.2 -0.2)">
       <use xlink:href="#SimHei-31"/>
       <use xlink:href="#SimHei-31" x="50"/>
       <use xlink:href="#SimHei-70b9" x="100"/>
       <use xlink:href="#SimHei-33" x="200"/>
       <use xlink:href="#SimHei-39" x="250"/>
       <use xlink:href="#SimHei-5206" x="300"/>
      </g>
     </g>
    </g>
    <g id="xtick_35">
     <g id="line2d_69">
      <path d="M 2420.742857 1409.76 
L 2420.742857 190.08 
" clip-path="url(#p5c05304b59)" style="fill: none; stroke: #b0b0b0; stroke-opacity: 0.56; stroke-width: 0.8; stroke-linecap: square"/>
     </g>
     <g id="line2d_70">
      <g>
       <use xlink:href="#md3a01e386a" x="2420.742857" y="1409.76" style="stroke: #000000; stroke-width: 0.8"/>
      </g>
     </g>
     <g id="text_35">
      <!-- 11点42分 -->
      <g transform="translate(2397.154217 1484.487571) rotate(-45) scale(0.2 -0.2)">
       <use xlink:href="#SimHei-31"/>
       <use xlink:href="#SimHei-31" x="50"/>
       <use xlink:href="#SimHei-70b9" x="100"/>
       <use xlink:href="#SimHei-34" x="200"/>
       <use xlink:href="#SimHei-32" x="250"/>
       <use xlink:href="#SimHei-5206" x="300"/>
      </g>
     </g>
    </g>
    <g id="xtick_36">
     <g id="line2d_71">
      <path d="M 2477.011765 1409.76 
L 2477.011765 190.08 
" clip-path="url(#p5c05304b59)" style="fill: none; stroke: #b0b0b0; stroke-opacity: 0.56; stroke-width: 0.8; stroke-linecap: square"/>
     </g>
     <g id="line2d_72">
      <g>
       <use xlink:href="#md3a01e386a" x="2477.011765" y="1409.76" style="stroke: #000000; stroke-width: 0.8"/>
      </g>
     </g>
     <g id="text_36">
      <!-- 11点45分 -->
      <g transform="translate(2453.423124 1484.487571) rotate(-45) scale(0.2 -0.2)">
       <use xlink:href="#SimHei-31"/>
       <use xlink:href="#SimHei-31" x="50"/>
       <use xlink:href="#SimHei-70b9" x="100"/>
       <use xlink:href="#SimHei-34" x="200"/>
       <use xlink:href="#SimHei-35" x="250"/>
       <use xlink:href="#SimHei-5206" x="300"/>
      </g>
     </g>
    </g>
    <g id="xtick_37">
     <g id="line2d_73">
      <path d="M 2533.280672 1409.76 
L 2533.280672 190.08 
" clip-path="url(#p5c05304b59)" style="fill: none; stroke: #b0b0b0; stroke-opacity: 0.56; stroke-width: 0.8; stroke-linecap: square"/>
     </g>
     <g id="line2d_74">
      <g>
       <use xlink:href="#md3a01e386a" x="2533.280672" y="1409.76" style="stroke: #000000; stroke-width: 0.8"/>
      </g>
     </g>
     <g id="text_37">
      <!-- 11点48分 -->
      <g transform="translate(2509.692032 1484.487571) rotate(-45) scale(0.2 -0.2)">
       <use xlink:href="#SimHei-31"/>
       <use xlink:href="#SimHei-31" x="50"/>
       <use xlink:href="#SimHei-70b9" x="100"/>
       <use xlink:href="#SimHei-34" x="200"/>
       <use xlink:href="#SimHei-38" x="250"/>
       <use xlink:href="#SimHei-5206" x="300"/>
      </g>
     </g>
    </g>
    <g id="xtick_38">
     <g id="line2d_75">
      <path d="M 2589.54958 1409.76 
L 2589.54958 190.08 
" clip-path="url(#p5c05304b59)" style="fill: none; stroke: #b0b0b0; stroke-opacity: 0.56; stroke-width: 0.8; stroke-linecap: square"/>
     </g>
     <g id="line2d_76">
      <g>
       <use xlink:href="#md3a01e386a" x="2589.54958" y="1409.76" style="stroke: #000000; stroke-width: 0.8"/>
      </g>
     </g>
     <g id="text_38">
      <!-- 11点51分 -->
      <g transform="translate(2565.96094 1484.487571) rotate(-45) scale(0.2 -0.2)">
       <use xlink:href="#SimHei-31"/>
       <use xlink:href="#SimHei-31" x="50"/>
       <use xlink:href="#SimHei-70b9" x="100"/>
       <use xlink:href="#SimHei-35" x="200"/>
       <use xlink:href="#SimHei-31" x="250"/>
       <use xlink:href="#SimHei-5206" x="300"/>
      </g>
     </g>
    </g>
    <g id="xtick_39">
     <g id="line2d_77">
      <path d="M 2645.818487 1409.76 
L 2645.818487 190.08 
" clip-path="url(#p5c05304b59)" style="fill: none; stroke: #b0b0b0; stroke-opacity: 0.56; stroke-width: 0.8; stroke-linecap: square"/>
     </g>
     <g id="line2d_78">
      <g>
       <use xlink:href="#md3a01e386a" x="2645.818487" y="1409.76" style="stroke: #000000; stroke-width: 0.8"/>
      </g>
     </g>
     <g id="text_39">
      <!-- 11点54分 -->
      <g transform="translate(2622.229847 1484.487571) rotate(-45) scale(0.2 -0.2)">
       <use xlink:href="#SimHei-31"/>
       <use xlink:href="#SimHei-31" x="50"/>
       <use xlink:href="#SimHei-70b9" x="100"/>
       <use xlink:href="#SimHei-35" x="200"/>
       <use xlink:href="#SimHei-34" x="250"/>
       <use xlink:href="#SimHei-5206" x="300"/>
      </g>
     </g>
    </g>
    <g id="xtick_40">
     <g id="line2d_79">
      <path d="M 2702.087395 1409.76 
L 2702.087395 190.08 
" clip-path="url(#p5c05304b59)" style="fill: none; stroke: #b0b0b0; stroke-opacity: 0.56; stroke-width: 0.8; stroke-linecap: square"/>
     </g>
     <g id="line2d_80">
      <g>
       <use xlink:href="#md3a01e386a" x="2702.087395" y="1409.76" style="stroke: #000000; stroke-width: 0.8"/>
      </g>
     </g>
     <g id="text_40">
      <!-- 11点57分 -->
      <g transform="translate(2678.498755 1484.487571) rotate(-45) scale(0.2 -0.2)">
       <use xlink:href="#SimHei-31"/>
       <use xlink:href="#SimHei-31" x="50"/>
       <use xlink:href="#SimHei-70b9" x="100"/>
       <use xlink:href="#SimHei-35" x="200"/>
       <use xlink:href="#SimHei-37" x="250"/>
       <use xlink:href="#SimHei-5206" x="300"/>
      </g>
     </g>
    </g>
    <g id="text_41">
     <!-- 时间 单位(min) -->
     <g transform="translate(1553.6 1506.349088) scale(0.2 -0.2)">
      <defs>
       <path id="SimHei-65f6" d="M 2525 4575 
Q 2500 3675 2500 2400 
Q 2500 1125 2525 400 
L 2000 400 
L 2000 875 
L 1000 875 
L 1000 50 
L 475 50 
Q 500 1200 500 2350 
Q 500 3525 475 4575 
L 2525 4575 
z
M 4875 3825 
Q 4875 4575 4850 5225 
L 5400 5225 
Q 5375 4575 5375 3825 
Q 5750 3825 6175 3850 
L 6175 3375 
Q 5750 3400 5375 3400 
L 5375 50 
Q 5375 -325 5075 -425 
Q 4775 -525 4300 -575 
Q 4300 -275 4025 0 
Q 4500 -50 4687 -25 
Q 4875 0 4875 300 
L 4875 3400 
Q 3625 3400 2775 3375 
L 2775 3850 
Q 3575 3825 4875 3825 
z
M 2000 1300 
L 2000 2550 
L 1000 2550 
L 1000 1300 
L 2000 1300 
z
M 2000 2975 
L 2000 4150 
L 1000 4150 
L 1000 2975 
L 2000 2975 
z
M 3550 2725 
Q 3875 2200 4175 1600 
Q 3925 1525 3650 1375 
Q 3450 1975 3075 2500 
Q 3300 2600 3550 2725 
z
" transform="scale(0.015625)"/>
       <path id="SimHei-95f4" d="M 4450 3550 
Q 4425 3075 4425 2725 
L 4425 1400 
Q 4425 1075 4450 625 
L 1925 625 
Q 1950 1075 1950 1425 
L 1950 2725 
Q 1950 3075 1925 3550 
L 4450 3550 
z
M 5800 4875 
Q 5775 4400 5775 3925 
L 5775 250 
Q 5800 -325 5462 -450 
Q 5125 -575 4725 -625 
Q 4700 -325 4525 -25 
Q 5000 -50 5137 25 
Q 5275 100 5275 350 
L 5275 4450 
L 3775 4450 
Q 3175 4450 2650 4425 
L 2650 4900 
Q 3175 4875 3775 4875 
L 5800 4875 
z
M 550 -525 
Q 600 -25 600 525 
L 600 3150 
Q 600 3675 550 4025 
L 1125 4025 
Q 1100 3650 1100 3300 
L 1100 500 
Q 1100 0 1125 -525 
L 550 -525 
z
M 3950 1025 
L 3950 1950 
L 2425 1950 
L 2425 1025 
L 3950 1025 
z
M 3950 2350 
L 3950 3150 
L 2425 3150 
L 2425 2350 
L 3950 2350 
z
M 1525 5300 
Q 1750 5000 2225 4350 
Q 1950 4225 1700 4075 
Q 1450 4575 1075 5025 
Q 1350 5225 1525 5300 
z
" transform="scale(0.015625)"/>
       <path id="SimHei-20" transform="scale(0.015625)"/>
       <path id="SimHei-5355" d="M 5275 4075 
L 5275 1525 
L 3400 1525 
L 3400 925 
L 5050 925 
Q 5600 925 6000 950 
L 6000 450 
Q 5575 475 5050 475 
L 3400 475 
Q 3400 -300 3425 -625 
L 2875 -625 
Q 2925 -300 2925 475 
L 1300 475 
Q 700 475 425 450 
L 425 950 
Q 675 925 1250 925 
L 2925 925 
L 2925 1525 
L 1125 1525 
Q 1150 1950 1150 2750 
Q 1150 3550 1125 4075 
L 3600 4075 
Q 3875 4650 4075 5250 
Q 4325 5125 4650 4975 
Q 4550 4850 4400 4587 
Q 4250 4325 4100 4075 
L 5275 4075 
z
M 4775 1925 
L 4775 2600 
L 3400 2600 
L 3400 1925 
L 4775 1925 
z
M 4775 3000 
L 4775 3650 
L 3400 3650 
L 3400 3000 
L 4775 3000 
z
M 2925 1925 
L 2925 2600 
L 1625 2600 
L 1625 1925 
L 2925 1925 
z
M 2925 3000 
L 2925 3650 
L 1625 3650 
L 1625 3000 
L 2925 3000 
z
M 2100 5225 
Q 2350 4950 2675 4350 
Q 2400 4225 2225 4125 
Q 1975 4675 1725 4975 
Q 1900 5075 2100 5225 
z
" transform="scale(0.015625)"/>
       <path id="SimHei-4f4d" d="M 2125 4925 
Q 1950 4750 1625 3750 
L 1625 575 
Q 1625 -225 1650 -650 
L 1100 -650 
Q 1150 -200 1150 550 
L 1150 2950 
Q 775 2275 550 1950 
Q 375 2275 200 2425 
Q 525 2775 912 3575 
Q 1300 4375 1500 5200 
Q 1825 5000 2125 4925 
z
M 5375 3025 
Q 5275 2875 5100 2250 
Q 4925 1625 4600 300 
L 5450 300 
Q 5925 300 6100 325 
L 6100 -175 
Q 5875 -150 5450 -150 
L 2900 -150 
Q 2275 -150 2050 -175 
L 2050 325 
Q 2275 300 2850 300 
L 4075 300 
Q 4400 1400 4700 3175 
Q 5100 3075 5375 3025 
z
M 5250 4025 
Q 5700 4025 5925 4050 
L 5925 3575 
Q 5700 3600 5225 3600 
L 3000 3600 
Q 2650 3600 2275 3575 
L 2275 4050 
Q 2675 4025 3000 4025 
L 5250 4025 
z
M 3050 3050 
Q 3500 1775 3750 725 
Q 3450 625 3250 550 
Q 3125 1125 2962 1675 
Q 2800 2225 2550 2875 
Q 2800 2925 3050 3050 
z
M 3875 5200 
Q 4175 4675 4400 4300 
Q 4200 4250 3875 4075 
Q 3700 4525 3400 4950 
Q 3650 5050 3875 5200 
z
" transform="scale(0.015625)"/>
       <path id="SimHei-28" d="M 2975 -200 
L 2700 -475 
Q 2075 125 1762 775 
Q 1450 1425 1450 2250 
Q 1450 3075 1762 3725 
Q 2075 4375 2700 5000 
L 2975 4725 
Q 2400 4175 2112 3587 
Q 1825 3000 1825 2250 
Q 1825 1500 2112 912 
Q 2400 325 2975 -200 
z
" transform="scale(0.015625)"/>
       <path id="SimHei-6d" d="M 3050 125 
L 2550 125 
L 2550 2150 
Q 2550 2300 2500 2400 
Q 2450 2500 2300 2500 
Q 2125 2500 1975 2312 
Q 1825 2125 1825 1825 
L 1825 125 
L 1325 125 
L 1325 2150 
Q 1325 2300 1275 2400 
Q 1225 2500 1075 2500 
Q 900 2500 750 2312 
Q 600 2125 600 1825 
L 600 125 
L 100 125 
L 100 2925 
L 600 2925 
L 600 2550 
Q 725 2750 900 2862 
Q 1075 2975 1275 2975 
Q 1475 2975 1612 2862 
Q 1750 2750 1800 2550 
Q 1925 2750 2087 2862 
Q 2250 2975 2450 2975 
Q 2750 2975 2900 2812 
Q 3050 2650 3050 2350 
L 3050 125 
z
" transform="scale(0.015625)"/>
       <path id="SimHei-69" d="M 1800 3725 
L 1300 3725 
L 1300 4375 
L 1800 4375 
L 1800 3725 
z
M 1800 125 
L 1300 125 
L 1300 2925 
L 1800 2925 
L 1800 125 
z
" transform="scale(0.015625)"/>
       <path id="SimHei-6e" d="M 2800 125 
L 2300 125 
L 2300 1925 
Q 2300 2225 2150 2400 
Q 2000 2575 1750 2575 
Q 1425 2575 1137 2237 
Q 850 1900 850 1400 
L 850 125 
L 350 125 
L 350 2925 
L 850 2925 
L 850 2400 
Q 1050 2675 1287 2825 
Q 1525 2975 1900 2975 
Q 2350 2975 2575 2725 
Q 2800 2475 2800 2100 
L 2800 125 
z
" transform="scale(0.015625)"/>
       <path id="SimHei-29" d="M 1675 2250 
Q 1675 1425 1362 775 
Q 1050 125 425 -475 
L 150 -200 
Q 725 325 1012 912 
Q 1300 1500 1300 2250 
Q 1300 3000 1012 3587 
Q 725 4175 150 4725 
L 425 5000 
Q 1050 4375 1362 3725 
Q 1675 3075 1675 2250 
z
" transform="scale(0.015625)"/>
      </defs>
      <use xlink:href="#SimHei-65f6"/>
      <use xlink:href="#SimHei-95f4" x="100"/>
      <use xlink:href="#SimHei-20" x="200"/>
      <use xlink:href="#SimHei-5355" x="250"/>
      <use xlink:href="#SimHei-4f4d" x="350"/>
      <use xlink:href="#SimHei-28" x="450"/>
      <use xlink:href="#SimHei-6d" x="500"/>
      <use xlink:href="#SimHei-69" x="550"/>
      <use xlink:href="#SimHei-6e" x="600"/>
      <use xlink:href="#SimHei-29" x="650"/>
     </g>
    </g>
   </g>
   <g id="matplotlib.axis_2">
    <g id="ytick_1">
     <g id="line2d_81">
      <path d="M 396 1201.558782 
L 2851.2 1201.558782 
" clip-path="url(#p5c05304b59)" style="fill: none; stroke: #b0b0b0; stroke-opacity: 0.56; stroke-width: 0.8; stroke-linecap: square"/>
     </g>
     <g id="line2d_82">
      <defs>
       <path id="m485e4cd4c9" d="M 0 0 
L -3.5 0 
" style="stroke: #000000; stroke-width: 0.8"/>
      </defs>
      <g>
       <use xlink:href="#m485e4cd4c9" x="396" y="1201.558782" style="stroke: #000000; stroke-width: 0.8"/>
      </g>
     </g>
     <g id="text_42">
      <!-- 20 -->
      <g transform="translate(379 1204.996282) scale(0.1 -0.1)">
       <use xlink:href="#SimHei-32"/>
       <use xlink:href="#SimHei-30" x="50"/>
      </g>
     </g>
    </g>
    <g id="ytick_2">
     <g id="line2d_83">
      <path d="M 396 1146.1438 
L 2851.2 1146.1438 
" clip-path="url(#p5c05304b59)" style="fill: none; stroke: #b0b0b0; stroke-opacity: 0.56; stroke-width: 0.8; stroke-linecap: square"/>
     </g>
     <g id="line2d_84">
      <g>
       <use xlink:href="#m485e4cd4c9" x="396" y="1146.1438" style="stroke: #000000; stroke-width: 0.8"/>
      </g>
     </g>
     <g id="text_43">
      <!-- 21 -->
      <g transform="translate(379 1149.5813) scale(0.1 -0.1)">
       <use xlink:href="#SimHei-32"/>
       <use xlink:href="#SimHei-31" x="50"/>
      </g>
     </g>
    </g>
    <g id="ytick_3">
     <g id="line2d_85">
      <path d="M 396 1090.728818 
L 2851.2 1090.728818 
" clip-path="url(#p5c05304b59)" style="fill: none; stroke: #b0b0b0; stroke-opacity: 0.56; stroke-width: 0.8; stroke-linecap: square"/>
     </g>
     <g id="line2d_86">
      <g>
       <use xlink:href="#m485e4cd4c9" x="396" y="1090.728818" style="stroke: #000000; stroke-width: 0.8"/>
      </g>
     </g>
     <g id="text_44">
      <!-- 22 -->
      <g transform="translate(379 1094.166318) scale(0.1 -0.1)">
       <use xlink:href="#SimHei-32"/>
       <use xlink:href="#SimHei-32" x="50"/>
      </g>
     </g>
    </g>
    <g id="ytick_4">
     <g id="line2d_87">
      <path d="M 396 1035.313837 
L 2851.2 1035.313837 
" clip-path="url(#p5c05304b59)" style="fill: none; stroke: #b0b0b0; stroke-opacity: 0.56; stroke-width: 0.8; stroke-linecap: square"/>
     </g>
     <g id="line2d_88">
      <g>
       <use xlink:href="#m485e4cd4c9" x="396" y="1035.313837" style="stroke: #000000; stroke-width: 0.8"/>
      </g>
     </g>
     <g id="text_45">
      <!-- 23 -->
      <g transform="translate(379 1038.751337) scale(0.1 -0.1)">
       <use xlink:href="#SimHei-32"/>
       <use xlink:href="#SimHei-33" x="50"/>
      </g>
     </g>
    </g>
    <g id="ytick_5">
     <g id="line2d_89">
      <path d="M 396 979.898855 
L 2851.2 979.898855 
" clip-path="url(#p5c05304b59)" style="fill: none; stroke: #b0b0b0; stroke-opacity: 0.56; stroke-width: 0.8; stroke-linecap: square"/>
     </g>
     <g id="line2d_90">
      <g>
       <use xlink:href="#m485e4cd4c9" x="396" y="979.898855" style="stroke: #000000; stroke-width: 0.8"/>
      </g>
     </g>
     <g id="text_46">
      <!-- 24 -->
      <g transform="translate(379 983.336355) scale(0.1 -0.1)">
       <use xlink:href="#SimHei-32"/>
       <use xlink:href="#SimHei-34" x="50"/>
      </g>
     </g>
    </g>
    <g id="ytick_6">
     <g id="line2d_91">
      <path d="M 396 924.483873 
L 2851.2 924.483873 
" clip-path="url(#p5c05304b59)" style="fill: none; stroke: #b0b0b0; stroke-opacity: 0.56; stroke-width: 0.8; stroke-linecap: square"/>
     </g>
     <g id="line2d_92">
      <g>
       <use xlink:href="#m485e4cd4c9" x="396" y="924.483873" style="stroke: #000000; stroke-width: 0.8"/>
      </g>
     </g>
     <g id="text_47">
      <!-- 25 -->
      <g transform="translate(379 927.921373) scale(0.1 -0.1)">
       <use xlink:href="#SimHei-32"/>
       <use xlink:href="#SimHei-35" x="50"/>
      </g>
     </g>
    </g>
    <g id="ytick_7">
     <g id="line2d_93">
      <path d="M 396 869.068892 
L 2851.2 869.068892 
" clip-path="url(#p5c05304b59)" style="fill: none; stroke: #b0b0b0; stroke-opacity: 0.56; stroke-width: 0.8; stroke-linecap: square"/>
     </g>
     <g id="line2d_94">
      <g>
       <use xlink:href="#m485e4cd4c9" x="396" y="869.068892" style="stroke: #000000; stroke-width: 0.8"/>
      </g>
     </g>
     <g id="text_48">
      <!-- 26 -->
      <g transform="translate(379 872.506392) scale(0.1 -0.1)">
       <use xlink:href="#SimHei-32"/>
       <use xlink:href="#SimHei-36" x="50"/>
      </g>
     </g>
    </g>
    <g id="ytick_8">
     <g id="line2d_95">
      <path d="M 396 813.65391 
L 2851.2 813.65391 
" clip-path="url(#p5c05304b59)" style="fill: none; stroke: #b0b0b0; stroke-opacity: 0.56; stroke-width: 0.8; stroke-linecap: square"/>
     </g>
     <g id="line2d_96">
      <g>
       <use xlink:href="#m485e4cd4c9" x="396" y="813.65391" style="stroke: #000000; stroke-width: 0.8"/>
      </g>
     </g>
     <g id="text_49">
      <!-- 27 -->
      <g transform="translate(379 817.09141) scale(0.1 -0.1)">
       <use xlink:href="#SimHei-32"/>
       <use xlink:href="#SimHei-37" x="50"/>
      </g>
     </g>
    </g>
    <g id="ytick_9">
     <g id="line2d_97">
      <path d="M 396 758.238929 
L 2851.2 758.238929 
" clip-path="url(#p5c05304b59)" style="fill: none; stroke: #b0b0b0; stroke-opacity: 0.56; stroke-width: 0.8; stroke-linecap: square"/>
     </g>
     <g id="line2d_98">
      <g>
       <use xlink:href="#m485e4cd4c9" x="396" y="758.238929" style="stroke: #000000; stroke-width: 0.8"/>
      </g>
     </g>
     <g id="text_50">
      <!-- 28 -->
      <g transform="translate(379 761.676429) scale(0.1 -0.1)">
       <use xlink:href="#SimHei-32"/>
       <use xlink:href="#SimHei-38" x="50"/>
      </g>
     </g>
    </g>
    <g id="ytick_10">
     <g id="line2d_99">
      <path d="M 396 702.823947 
L 2851.2 702.823947 
" clip-path="url(#p5c05304b59)" style="fill: none; stroke: #b0b0b0; stroke-opacity: 0.56; stroke-width: 0.8; stroke-linecap: square"/>
     </g>
     <g id="line2d_100">
      <g>
       <use xlink:href="#m485e4cd4c9" x="396" y="702.823947" style="stroke: #000000; stroke-width: 0.8"/>
      </g>
     </g>
     <g id="text_51">
      <!-- 29 -->
      <g transform="translate(379 706.261447) scale(0.1 -0.1)">
       <use xlink:href="#SimHei-32"/>
       <use xlink:href="#SimHei-39" x="50"/>
      </g>
     </g>
    </g>
    <g id="ytick_11">
     <g id="line2d_101">
      <path d="M 396 647.408965 
L 2851.2 647.408965 
" clip-path="url(#p5c05304b59)" style="fill: none; stroke: #b0b0b0; stroke-opacity: 0.56; stroke-width: 0.8; stroke-linecap: square"/>
     </g>
     <g id="line2d_102">
      <g>
       <use xlink:href="#m485e4cd4c9" x="396" y="647.408965" style="stroke: #000000; stroke-width: 0.8"/>
      </g>
     </g>
     <g id="text_52">
      <!-- 30 -->
      <g transform="translate(379 650.846465) scale(0.1 -0.1)">
       <use xlink:href="#SimHei-33"/>
       <use xlink:href="#SimHei-30" x="50"/>
      </g>
     </g>
    </g>
    <g id="ytick_12">
     <g id="line2d_103">
      <path d="M 396 591.993984 
L 2851.2 591.993984 
" clip-path="url(#p5c05304b59)" style="fill: none; stroke: #b0b0b0; stroke-opacity: 0.56; stroke-width: 0.8; stroke-linecap: square"/>
     </g>
     <g id="line2d_104">
      <g>
       <use xlink:href="#m485e4cd4c9" x="396" y="591.993984" style="stroke: #000000; stroke-width: 0.8"/>
      </g>
     </g>
     <g id="text_53">
      <!-- 31 -->
      <g transform="translate(379 595.431484) scale(0.1 -0.1)">
       <use xlink:href="#SimHei-33"/>
       <use xlink:href="#SimHei-31" x="50"/>
      </g>
     </g>
    </g>
    <g id="ytick_13">
     <g id="line2d_105">
      <path d="M 396 536.579002 
L 2851.2 536.579002 
" clip-path="url(#p5c05304b59)" style="fill: none; stroke: #b0b0b0; stroke-opacity: 0.56; stroke-width: 0.8; stroke-linecap: square"/>
     </g>
     <g id="line2d_106">
      <g>
       <use xlink:href="#m485e4cd4c9" x="396" y="536.579002" style="stroke: #000000; stroke-width: 0.8"/>
      </g>
     </g>
     <g id="text_54">
      <!-- 32 -->
      <g transform="translate(379 540.016502) scale(0.1 -0.1)">
       <use xlink:href="#SimHei-33"/>
       <use xlink:href="#SimHei-32" x="50"/>
      </g>
     </g>
    </g>
    <g id="ytick_14">
     <g id="line2d_107">
      <path d="M 396 481.16402 
L 2851.2 481.16402 
" clip-path="url(#p5c05304b59)" style="fill: none; stroke: #b0b0b0; stroke-opacity: 0.56; stroke-width: 0.8; stroke-linecap: square"/>
     </g>
     <g id="line2d_108">
      <g>
       <use xlink:href="#m485e4cd4c9" x="396" y="481.16402" style="stroke: #000000; stroke-width: 0.8"/>
      </g>
     </g>
     <g id="text_55">
      <!-- 33 -->
      <g transform="translate(379 484.60152) scale(0.1 -0.1)">
       <use xlink:href="#SimHei-33"/>
       <use xlink:href="#SimHei-33" x="50"/>
      </g>
     </g>
    </g>
    <g id="ytick_15">
     <g id="line2d_109">
      <path d="M 396 425.749039 
L 2851.2 425.749039 
" clip-path="url(#p5c05304b59)" style="fill: none; stroke: #b0b0b0; stroke-opacity: 0.56; stroke-width: 0.8; stroke-linecap: square"/>
     </g>
     <g id="line2d_110">
      <g>
       <use xlink:href="#m485e4cd4c9" x="396" y="425.749039" style="stroke: #000000; stroke-width: 0.8"/>
      </g>
     </g>
     <g id="text_56">
      <!-- 34 -->
      <g transform="translate(379 429.186539) scale(0.1 -0.1)">
       <use xlink:href="#SimHei-33"/>
       <use xlink:href="#SimHei-34" x="50"/>
      </g>
     </g>
    </g>
    <g id="ytick_16">
     <g id="line2d_111">
      <path d="M 396 370.334057 
L 2851.2 370.334057 
" clip-path="url(#p5c05304b59)" style="fill: none; stroke: #b0b0b0; stroke-opacity: 0.56; stroke-width: 0.8; stroke-linecap: square"/>
     </g>
     <g id="line2d_112">
      <g>
       <use xlink:href="#m485e4cd4c9" x="396" y="370.334057" style="stroke: #000000; stroke-width: 0.8"/>
      </g>
     </g>
     <g id="text_57">
      <!-- 35 -->
      <g transform="translate(379 373.771557) scale(0.1 -0.1)">
       <use xlink:href="#SimHei-33"/>
       <use xlink:href="#SimHei-35" x="50"/>
      </g>
     </g>
    </g>
    <g id="text_58">
     <!-- 温度 单位(℃) -->
     <g transform="translate(372.5 864.92) rotate(-90) scale(0.2 -0.2)">
      <defs>
       <path id="SimHei-6e29" d="M 5625 1925 
Q 5600 1475 5600 0 
Q 5875 0 6125 25 
L 6125 -425 
Q 5725 -400 5325 -400 
L 2275 -400 
Q 1825 -400 1400 -425 
L 1400 25 
Q 1725 0 2000 0 
Q 2000 1425 1975 1925 
L 5625 1925 
z
M 5325 2525 
L 2250 2525 
Q 2275 2950 2275 3675 
Q 2275 4400 2250 4925 
L 5325 4925 
L 5325 2525 
z
M 4875 2950 
L 4875 3500 
L 2725 3500 
L 2725 2950 
L 4875 2950 
z
M 1550 1775 
Q 1375 1300 1162 600 
Q 950 -100 800 -500 
Q 550 -275 275 -175 
Q 525 250 787 950 
Q 1050 1650 1100 2075 
Q 1300 1875 1550 1775 
z
M 4875 3925 
L 4875 4450 
L 2725 4450 
L 2725 3925 
L 4875 3925 
z
M 5150 0 
L 5150 1500 
L 4525 1500 
L 4525 0 
L 5150 0 
z
M 4075 0 
L 4075 1500 
L 3475 1500 
L 3475 0 
L 4075 0 
z
M 3075 0 
L 3075 1500 
L 2475 1500 
L 2475 0 
L 3075 0 
z
M 875 5050 
Q 1475 4600 1825 4325 
Q 1675 4100 1525 3925 
Q 1300 4200 575 4700 
Q 750 4875 875 5050 
z
M 575 3625 
Q 1000 3400 1550 2900 
Q 1350 2750 1225 2550 
Q 975 2825 325 3300 
Q 425 3400 575 3625 
z
" transform="scale(0.015625)"/>
       <path id="SimHei-5ea6" d="M 1750 1675 
Q 2450 1650 2875 1650 
L 5200 1650 
Q 4975 1250 4650 850 
Q 4325 450 4025 200 
Q 4350 50 4950 -50 
Q 5550 -150 6100 -150 
Q 5950 -300 5825 -650 
Q 5100 -550 4550 -412 
Q 4000 -275 3625 -100 
Q 3100 -325 2587 -462 
Q 2075 -600 1525 -675 
Q 1450 -475 1225 -250 
Q 1675 -250 2250 -125 
Q 2825 0 3250 200 
Q 2825 550 2400 1275 
L 1750 1250 
L 1750 1675 
z
M 2975 5075 
Q 3250 5150 3475 5250 
Q 3625 4975 3775 4525 
L 4700 4525 
Q 4975 4525 5700 4550 
L 5700 4100 
Q 5000 4125 4650 4125 
L 1375 4125 
Q 1375 3000 1350 2312 
Q 1325 1625 1212 950 
Q 1100 275 725 -525 
Q 500 -375 250 -300 
Q 650 400 762 1075 
Q 875 1750 887 2800 
Q 900 3850 875 4525 
L 3200 4525 
Q 3100 4850 2975 5075 
z
M 2475 3300 
Q 2475 3700 2450 3925 
L 2975 3925 
Q 2950 3725 2950 3300 
L 4300 3300 
Q 4300 3700 4275 3950 
L 4800 3950 
Q 4775 3650 4775 3300 
Q 5325 3300 5725 3325 
L 5725 2900 
Q 5350 2925 4775 2925 
Q 4775 2250 4800 1950 
L 2450 1950 
Q 2475 2350 2475 2925 
Q 2175 2925 1600 2900 
L 1600 3325 
Q 2175 3300 2475 3300 
z
M 4300 2350 
L 4300 2925 
L 2950 2925 
L 2950 2350 
L 4300 2350 
z
M 2875 1275 
Q 3200 775 3650 425 
Q 4025 700 4425 1275 
L 2900 1275 
L 2875 1275 
z
" transform="scale(0.015625)"/>
       <path id="SimHei-2103" d="M 1050 5050 
Q 1500 5025 1675 4525 
L 1675 4300 
Q 1550 3900 1175 3825 
L 975 3825 
Q 500 3875 450 4450 
Q 475 4925 1025 5050 
L 1050 5050 
z
M 1025 4850 
Q 675 4750 650 4450 
Q 675 4125 950 4025 
L 1100 4000 
Q 1500 4125 1475 4475 
L 1475 4500 
Q 1375 4775 1150 4850 
L 1025 4850 
z
M 4025 4425 
Q 5375 4350 5750 3300 
L 5775 3250 
L 5300 3050 
Q 5000 3850 4300 3900 
L 3925 3925 
Q 2500 3850 2450 2025 
Q 2525 775 3475 425 
Q 3675 325 4125 350 
Q 4975 450 5400 1450 
L 5400 1475 
L 5900 1375 
L 5900 1350 
Q 5325 -75 4075 -125 
L 3725 -125 
Q 2400 100 2100 1175 
Q 1975 1525 1975 2100 
Q 2050 3550 2975 4125 
Q 3375 4400 3925 4425 
L 4025 4425 
z
" transform="scale(0.015625)"/>
      </defs>
      <use xlink:href="#SimHei-6e29"/>
      <use xlink:href="#SimHei-5ea6" x="100"/>
      <use xlink:href="#SimHei-20" x="200"/>
      <use xlink:href="#SimHei-5355" x="250"/>
      <use xlink:href="#SimHei-4f4d" x="350"/>
      <use xlink:href="#SimHei-28" x="450"/>
      <use xlink:href="#SimHei-2103" x="500"/>
      <use xlink:href="#SimHei-29" x="600"/>
     </g>
    </g>
   </g>
   <g id="line2d_113">
    <path d="M 507.6 813.65391 
L 526.356303 370.334057 
L 545.112605 1146.1438 
L 563.868908 370.334057 
L 582.62521 1146.1438 
L 601.381513 702.823947 
L 620.137815 1146.1438 
L 638.894118 647.408965 
L 657.65042 924.483873 
L 676.406723 591.993984 
L 695.163025 979.898855 
L 713.919328 370.334057 
L 732.67563 979.898855 
L 751.431933 370.334057 
L 770.188235 1146.1438 
L 788.944538 869.068892 
L 807.70084 647.408965 
L 826.457143 370.334057 
L 845.213445 1035.313837 
L 863.969748 758.238929 
L 882.72605 1035.313837 
L 901.482353 924.483873 
L 920.238655 924.483873 
L 938.994958 536.579002 
L 957.751261 481.16402 
L 976.507563 481.16402 
L 995.263866 979.898855 
L 1014.020168 1035.313837 
L 1032.776471 979.898855 
L 1051.532773 481.16402 
L 1070.289076 1201.558782 
L 1089.045378 924.483873 
L 1107.801681 979.898855 
L 1126.557983 924.483873 
L 1145.314286 591.993984 
L 1164.070588 425.749039 
L 1182.826891 1201.558782 
L 1201.583193 1090.728818 
L 1220.339496 758.238929 
L 1239.095798 1035.313837 
L 1257.852101 1035.313837 
L 1276.608403 1146.1438 
L 1295.364706 1146.1438 
L 1314.121008 481.16402 
L 1332.877311 481.16402 
L 1351.633613 813.65391 
L 1370.389916 869.068892 
L 1389.146218 758.238929 
L 1407.902521 481.16402 
L 1426.658824 979.898855 
L 1445.415126 702.823947 
L 1464.171429 758.238929 
L 1482.927731 1146.1438 
L 1501.684034 1201.558782 
L 1520.440336 1201.558782 
L 1539.196639 702.823947 
L 1557.952941 425.749039 
L 1576.709244 647.408965 
L 1595.465546 979.898855 
L 1614.221849 647.408965 
L 1632.978151 1201.558782 
L 1651.734454 1035.313837 
L 1670.490756 979.898855 
L 1689.247059 536.579002 
L 1708.003361 979.898855 
L 1726.759664 813.65391 
L 1745.515966 924.483873 
L 1764.272269 1035.313837 
L 1783.028571 536.579002 
L 1801.784874 1090.728818 
L 1820.541176 702.823947 
L 1839.297479 1035.313837 
L 1858.053782 758.238929 
L 1876.810084 1201.558782 
L 1895.566387 869.068892 
L 1914.322689 869.068892 
L 1933.078992 425.749039 
L 1951.835294 758.238929 
L 1970.591597 591.993984 
L 1989.347899 1201.558782 
L 2008.104202 924.483873 
L 2026.860504 702.823947 
L 2045.616807 536.579002 
L 2064.373109 869.068892 
L 2083.129412 979.898855 
L 2101.885714 1090.728818 
L 2120.642017 758.238929 
L 2139.398319 370.334057 
L 2158.154622 370.334057 
L 2176.910924 1146.1438 
L 2195.667227 591.993984 
L 2214.423529 536.579002 
L 2233.179832 425.749039 
L 2251.936134 1201.558782 
L 2270.692437 370.334057 
L 2289.448739 979.898855 
L 2308.205042 758.238929 
L 2326.961345 1146.1438 
L 2345.717647 591.993984 
L 2364.47395 924.483873 
L 2383.230252 758.238929 
L 2401.986555 536.579002 
L 2420.742857 370.334057 
L 2439.49916 481.16402 
L 2458.255462 758.238929 
L 2477.011765 979.898855 
L 2495.768067 647.408965 
L 2514.52437 702.823947 
L 2533.280672 924.483873 
L 2552.036975 869.068892 
L 2570.793277 702.823947 
L 2589.54958 1035.313837 
L 2608.305882 758.238929 
L 2627.062185 758.238929 
L 2645.818487 1090.728818 
L 2664.57479 702.823947 
L 2683.331092 647.408965 
L 2702.087395 702.823947 
L 2720.843697 758.238929 
L 2739.6 869.068892 
" clip-path="url(#p5c05304b59)" style="fill: none; stroke-dasharray: 18.5,8; stroke-dashoffset: 0; stroke: #008000; stroke-opacity: 0.75; stroke-width: 5"/>
   </g>
   <g id="line2d_114">
    <path d="M 507.6 760.589315 
L 526.356303 444.142794 
L 545.112605 1151.794013 
L 563.868908 299.764255 
L 582.62521 1257.371306 
L 601.381513 808.185372 
L 620.137815 1269.957807 
L 638.894118 692.205978 
L 657.65042 940.665551 
L 676.406723 484.657883 
L 695.163025 1116.004363 
L 713.919328 355.723003 
L 732.67563 1007.878319 
L 751.431933 520.176671 
L 770.188235 994.964478 
L 788.944538 779.08194 
L 807.70084 682.652925 
L 826.457143 499.23535 
L 845.213445 1173.528434 
L 863.969748 844.562201 
L 882.72605 924.565472 
L 901.482353 764.434386 
L 920.238655 961.420552 
L 938.994958 504.470611 
L 957.751261 602.393016 
L 976.507563 505.126512 
L 995.263866 952.664158 
L 1014.020168 1185.001007 
L 1032.776471 1038.899187 
L 1051.532773 585.579742 
L 1070.289076 1098.827756 
L 1089.045378 1015.648809 
L 1107.801681 1076.985638 
L 1126.557983 857.521982 
L 1145.314286 554.164522 
L 1164.070588 435.713891 
L 1182.826891 1046.50425 
L 1201.583193 951.047518 
L 1220.339496 839.763479 
L 1239.095798 1000.518762 
L 1257.852101 1135.789111 
L 1276.608403 1090.559126 
L 1295.364706 1278.181324 
L 1314.121008 524.558393 
L 1332.877311 391.278691 
L 1351.633613 933.060786 
L 1370.389916 962.425499 
L 1389.146218 700.576632 
L 1407.902521 367.18959 
L 1426.658824 949.949529 
L 1445.415126 638.419142 
L 1464.171429 606.800239 
L 1482.927731 985.397766 
L 1501.684034 1166.092125 
L 1520.440336 1110.741939 
L 1539.196639 547.292211 
L 1557.952941 464.559904 
L 1576.709244 563.491665 
L 1595.465546 979.481834 
L 1614.221849 520.74732 
L 1632.978151 1132.919904 
L 1651.734454 886.651809 
L 1670.490756 909.853599 
L 1689.247059 644.910933 
L 1708.003361 919.245121 
L 1726.759664 749.133929 
L 1745.515966 982.319129 
L 1764.272269 1195.541989 
L 1783.028571 554.15002 
L 1801.784874 1104.345216 
L 1820.541176 597.861474 
L 1839.297479 991.223782 
L 1858.053782 909.24838 
L 1876.810084 1141.510603 
L 1895.566387 714.004651 
L 1914.322689 1017.849189 
L 1933.078992 303.989236 
L 1951.835294 912.535597 
L 1970.591597 644.519252 
L 1989.347899 1061.987286 
L 2008.104202 1024.582247 
L 2026.860504 639.605931 
L 2045.616807 393.274726 
L 2064.373109 906.910449 
L 2083.129412 852.374136 
L 2101.885714 1177.372797 
L 2120.642017 817.616735 
L 2139.398319 445.630759 
L 2158.154622 344.227296 
L 2176.910924 1257.011179 
L 2195.667227 744.688469 
L 2214.423529 443.53243 
L 2233.179832 298.776036 
L 2251.936134 1354.32 
L 2270.692437 317.152554 
L 2289.448739 1010.564725 
L 2308.205042 812.5698 
L 2326.961345 1222.583663 
L 2345.717647 570.138735 
L 2364.47395 807.714161 
L 2383.230252 665.788861 
L 2401.986555 514.868387 
L 2420.742857 245.52 
L 2439.49916 451.48967 
L 2458.255462 851.500979 
L 2477.011765 1017.645556 
L 2495.768067 798.168249 
L 2514.52437 562.095083 
L 2533.280672 926.405802 
L 2552.036975 716.717441 
L 2570.793277 698.752889 
L 2589.54958 1066.741808 
L 2608.305882 917.420892 
L 2627.062185 667.507165 
L 2645.818487 1091.310544 
L 2664.57479 642.799294 
L 2683.331092 658.686233 
L 2702.087395 766.982164 
L 2720.843697 727.070033 
L 2739.6 986.075821 
" clip-path="url(#p5c05304b59)" style="fill: none; stroke: #1f77b4; stroke-width: 1.5; stroke-linecap: square"/>
   </g>
   <g id="patch_3">
    <path d="M 396 1409.76 
L 396 190.08 
" style="fill: none; stroke: #000000; stroke-width: 0.8; stroke-linejoin: miter; stroke-linecap: square"/>
   </g>
   <g id="patch_4">
    <path d="M 2851.2 1409.76 
L 2851.2 190.08 
" style="fill: none; stroke: #000000; stroke-width: 0.8; stroke-linejoin: miter; stroke-linecap: square"/>
   </g>
   <g id="patch_5">
    <path d="M 396 1409.76 
L 2851.2 1409.76 
" style="fill: none; stroke: #000000; stroke-width: 0.8; stroke-linejoin: miter; stroke-linecap: square"/>
   </g>
   <g id="patch_6">
    <path d="M 396 190.08 
L 2851.2 190.08 
" style="fill: none; stroke: #000000; stroke-width: 0.8; stroke-linejoin: miter; stroke-linecap: square"/>
   </g>
   <g id="text_59">
    <!-- 10点到12点气温变化折线图 -->
    <g transform="translate(1503.6 184.08) scale(0.2 -0.2)">
     <defs>
      <path id="SimHei-5230" d="M 3675 150 
Q 2275 -50 1537 -175 
Q 800 -300 500 -400 
Q 425 -75 325 225 
Q 775 250 1062 275 
Q 1350 300 1750 350 
L 1750 1325 
L 1400 1325 
Q 900 1325 550 1275 
L 550 1750 
Q 975 1725 1325 1725 
L 1750 1725 
L 1750 2550 
Q 1250 2525 1037 2500 
Q 825 2475 575 2425 
Q 525 2750 425 3000 
Q 825 3100 1137 3500 
Q 1450 3900 1625 4400 
L 1250 4400 
Q 825 4400 450 4375 
L 450 4850 
Q 850 4825 1225 4825 
L 2825 4825 
Q 3275 4825 3625 4850 
L 3625 4375 
Q 3250 4400 2825 4400 
L 1800 4400 
L 2250 4100 
Q 2000 3900 1775 3600 
Q 1550 3300 1250 2950 
Q 2150 3000 2925 3050 
Q 2725 3375 2475 3700 
Q 2725 3825 2925 3975 
Q 3175 3625 3400 3300 
Q 3625 2975 3825 2700 
Q 3600 2525 3325 2375 
Q 3225 2550 3150 2675 
Q 2625 2600 2275 2575 
L 2275 1725 
L 2750 1725 
Q 3175 1725 3475 1750 
L 3475 1275 
Q 3150 1325 2775 1325 
L 2275 1325 
L 2275 400 
Q 2975 500 3750 625 
Q 3700 375 3675 150 
z
M 5875 5175 
Q 5825 4800 5825 4325 
L 5825 225 
Q 5825 -350 5612 -450 
Q 5400 -550 4700 -675 
Q 4625 -350 4475 -75 
Q 5000 -75 5162 -37 
Q 5325 0 5325 375 
L 5325 4325 
Q 5325 4875 5300 5175 
L 5875 5175 
z
M 4600 4375 
Q 4550 4050 4550 3475 
L 4550 1600 
Q 4550 1075 4575 725 
L 4050 725 
Q 4075 1075 4075 1600 
L 4075 3575 
Q 4075 4075 4050 4375 
L 4600 4375 
z
" transform="scale(0.015625)"/>
      <path id="SimHei-6c14" d="M 6150 500 
Q 5800 -525 5450 -587 
Q 5100 -650 4850 -250 
Q 4600 150 4500 662 
Q 4400 1175 4450 2150 
L 1700 2150 
Q 1300 2150 850 2125 
L 850 2575 
Q 1300 2550 1700 2550 
L 4975 2550 
Q 4925 1775 4937 1350 
Q 4950 925 5062 587 
Q 5175 250 5312 75 
Q 5450 -100 5675 875 
Q 5950 550 6150 500 
z
M 2300 5050 
Q 2150 4825 1975 4550 
L 4725 4550 
Q 5175 4550 5575 4575 
L 5575 4125 
Q 5175 4150 4725 4150 
L 1775 4150 
Q 1650 3900 1387 3512 
Q 1125 3125 875 2850 
Q 675 3050 375 3125 
Q 700 3400 1125 4062 
Q 1550 4725 1725 5275 
Q 2000 5150 2300 5050 
z
M 4300 3575 
Q 4700 3575 5100 3600 
L 5100 3150 
Q 4700 3175 4300 3175 
L 2450 3175 
Q 2050 3175 1650 3150 
L 1650 3575 
Q 2050 3550 2450 3575 
L 4300 3575 
z
" transform="scale(0.015625)"/>
      <path id="SimHei-53d8" d="M 5200 1975 
Q 4950 1600 4537 1137 
Q 4125 675 3675 375 
Q 3925 225 4600 87 
Q 5275 -50 6000 -75 
Q 5700 -400 5650 -625 
Q 4850 -525 4212 -312 
Q 3575 -100 3225 125 
Q 2800 -125 2150 -325 
Q 1500 -525 700 -675 
Q 600 -425 400 -175 
Q 950 -150 1687 12 
Q 2425 175 2825 375 
Q 2275 775 1675 1575 
Q 1350 1575 1000 1550 
L 1000 2000 
Q 1450 1975 2075 1975 
L 5200 1975 
z
M 3225 5275 
Q 3400 4900 3550 4475 
L 4675 4475 
Q 5400 4475 5975 4500 
L 5975 4025 
Q 5375 4050 4725 4050 
L 4125 4050 
L 4125 2950 
Q 4125 2550 4150 2150 
L 3600 2150 
Q 3625 2550 3625 2950 
L 3625 4050 
L 2750 4050 
L 2750 2950 
Q 2750 2675 2775 2150 
L 2225 2150 
Q 2250 2675 2250 2950 
L 2250 4050 
L 1700 4050 
Q 975 4050 425 4025 
L 425 4500 
Q 950 4475 1700 4475 
L 2975 4475 
Q 2925 4675 2700 5125 
Q 2950 5150 3225 5275 
z
M 2200 1575 
Q 2650 975 3250 600 
Q 3850 1000 4275 1575 
L 2200 1575 
z
M 4850 3750 
Q 5375 3275 5950 2675 
Q 5750 2525 5500 2300 
Q 5075 2800 4450 3400 
Q 4675 3575 4850 3750 
z
M 1825 3500 
Q 1700 3375 1425 3025 
Q 1150 2675 825 2300 
Q 575 2475 375 2600 
Q 975 3150 1300 3825 
Q 1525 3650 1825 3500 
z
" transform="scale(0.015625)"/>
      <path id="SimHei-5316" d="M 3925 5025 
Q 3900 4900 3900 4400 
L 3900 2625 
Q 4375 3025 4775 3450 
Q 5175 3875 5400 4300 
Q 5600 4100 5900 3925 
Q 5700 3700 5225 3212 
Q 4750 2725 4487 2512 
Q 4225 2300 3900 2025 
L 3900 450 
Q 3900 50 4225 50 
L 5200 50 
Q 5400 75 5462 262 
Q 5525 450 5575 850 
Q 5800 650 6150 600 
Q 6000 -100 5825 -250 
Q 5650 -400 5350 -400 
L 3950 -400 
Q 3425 -400 3400 200 
L 3400 1675 
Q 3225 1525 2962 1350 
Q 2700 1175 2375 975 
Q 2225 1225 2025 1400 
Q 2350 1550 2737 1787 
Q 3125 2025 3400 2250 
L 3400 4500 
Q 3400 4800 3375 5025 
L 3925 5025 
z
M 2400 4850 
Q 2175 4550 2075 4337 
Q 1975 4125 1825 3775 
L 1825 675 
Q 1825 -75 1850 -550 
L 1325 -550 
Q 1350 -125 1350 650 
L 1350 3050 
Q 1125 2725 962 2525 
Q 800 2325 675 2175 
Q 500 2375 275 2525 
Q 625 2850 875 3212 
Q 1125 3575 1312 3912 
Q 1500 4250 1625 4575 
Q 1750 4900 1825 5100 
Q 1975 4975 2400 4850 
z
" transform="scale(0.015625)"/>
      <path id="SimHei-6298" d="M 5750 4500 
Q 5350 4450 3500 4250 
L 3500 3075 
L 4925 3075 
Q 5425 3075 5925 3100 
L 5925 2625 
Q 5500 2650 4975 2650 
Q 4975 125 5000 -600 
L 4450 -600 
Q 4475 125 4475 2650 
L 3500 2650 
Q 3450 1275 3250 650 
Q 3050 25 2600 -600 
Q 2275 -400 2100 -400 
Q 2450 25 2637 437 
Q 2825 850 2912 1325 
Q 3000 1800 3012 2662 
Q 3025 3525 2975 4625 
Q 3400 4625 4137 4725 
Q 4875 4825 5400 5000 
Q 5650 4625 5750 4500 
z
M 300 1950 
Q 625 2000 1350 2250 
L 1350 3300 
Q 800 3300 425 3275 
L 425 3750 
Q 800 3725 1350 3725 
Q 1350 4550 1325 5100 
L 1850 5100 
Q 1825 4600 1825 3725 
Q 2150 3725 2625 3750 
L 2625 3275 
Q 2150 3300 1825 3300 
L 1825 2425 
Q 2350 2600 2525 2700 
Q 2550 2450 2575 2250 
Q 2425 2175 1825 1950 
L 1825 175 
Q 1775 -250 1550 -362 
Q 1325 -475 800 -525 
Q 750 -225 625 25 
Q 1125 0 1237 62 
Q 1350 125 1350 350 
L 1350 1775 
Q 750 1525 525 1425 
Q 425 1675 300 1950 
z
" transform="scale(0.015625)"/>
      <path id="SimHei-7ebf" d="M 3450 4300 
Q 3450 4675 3375 5125 
Q 3700 5100 4050 5050 
Q 3975 4900 3950 4562 
Q 3925 4225 3950 3600 
L 4800 3750 
Q 5225 3850 5650 3975 
L 5750 3500 
Q 5325 3450 4875 3375 
L 3975 3200 
Q 3975 2800 4025 2500 
L 5000 2675 
Q 5500 2775 5950 2925 
L 6025 2450 
Q 5575 2375 5075 2275 
L 4100 2100 
Q 4150 1600 4350 1175 
Q 4575 1350 4787 1575 
Q 5000 1800 5175 2075 
Q 5550 1775 5750 1675 
Q 5425 1525 5237 1337 
Q 5050 1150 4625 750 
Q 4925 250 5162 112 
Q 5400 -25 5500 100 
Q 5600 225 5675 625 
Q 5900 450 6200 350 
Q 5775 -750 5275 -537 
Q 4775 -325 4225 450 
Q 3875 175 3537 -62 
Q 3200 -300 2700 -550 
Q 2575 -300 2325 -100 
Q 2825 75 3175 275 
Q 3525 475 3975 850 
Q 3750 1350 3650 2025 
Q 2900 1900 2600 1800 
L 2525 2275 
Q 2825 2275 3550 2425 
Q 3500 2825 3500 3100 
Q 2825 2950 2575 2875 
L 2475 3350 
Q 2725 3350 3450 3500 
L 3450 4300 
z
M 1950 4875 
Q 1700 4650 1462 4237 
Q 1225 3825 825 3225 
Q 1425 3250 1650 3250 
Q 1875 3625 2050 4075 
Q 2300 3900 2600 3800 
Q 2350 3550 2087 3125 
Q 1825 2700 1175 1675 
Q 1850 1725 2375 1775 
Q 2300 1525 2300 1350 
Q 2125 1350 1525 1287 
Q 925 1225 550 1125 
Q 525 1375 400 1650 
Q 700 1725 950 2050 
Q 1200 2375 1475 2875 
Q 650 2825 425 2675 
Q 350 2950 200 3225 
Q 525 3450 825 3962 
Q 1125 4475 1375 5150 
Q 1625 4975 1950 4875 
z
M 2575 875 
Q 2550 600 2575 450 
Q 1950 325 1450 200 
Q 950 75 525 -75 
Q 450 200 250 475 
Q 950 550 1325 612 
Q 1700 675 2575 875 
z
M 4850 4025 
Q 4675 4300 4375 4675 
L 4775 4875 
Q 4875 4750 5275 4275 
Q 5025 4175 4850 4025 
z
" transform="scale(0.015625)"/>
      <path id="SimHei-56fe" d="M 5800 4975 
Q 5775 4350 5775 3600 
L 5775 925 
Q 5775 150 5800 -600 
L 5300 -600 
L 5300 -275 
L 1125 -275 
L 1125 -650 
L 625 -650 
Q 650 125 650 950 
L 650 3600 
Q 650 4325 625 4975 
L 5800 4975 
z
M 5300 150 
L 5300 4575 
L 1125 4575 
L 1125 150 
L 5300 150 
z
M 3225 4250 
Q 3075 4100 2950 3925 
L 4625 3925 
Q 4525 3700 4300 3375 
Q 4075 3050 3600 2600 
Q 4350 2225 5075 2150 
Q 4900 1925 4775 1675 
Q 3850 1950 3225 2350 
Q 2500 1875 1675 1650 
Q 1600 1875 1400 2075 
Q 2200 2200 2875 2600 
Q 2525 2925 2375 3150 
Q 2150 2900 1900 2650 
Q 1725 2850 1525 2950 
Q 1950 3300 2250 3737 
Q 2550 4175 2675 4475 
Q 2925 4350 3225 4250 
z
M 2450 1275 
Q 3550 950 4100 725 
Q 3975 525 3850 300 
Q 2825 725 2275 850 
Q 2375 1050 2450 1275 
z
M 2925 2050 
Q 3775 1700 4075 1600 
Q 3950 1400 3850 1150 
Q 3000 1550 2700 1650 
Q 2825 1825 2925 2050 
z
M 2625 3450 
Q 3000 3025 3275 2850 
Q 3600 3100 3875 3525 
L 2675 3525 
L 2625 3450 
z
" transform="scale(0.015625)"/>
     </defs>
     <use xlink:href="#SimHei-31"/>
     <use xlink:href="#SimHei-30" x="50"/>
     <use xlink:href="#SimHei-70b9" x="100"/>
     <use xlink:href="#SimHei-5230" x="200"/>
     <use xlink:href="#SimHei-31" x="300"/>
     <use xlink:href="#SimHei-32" x="350"/>
     <use xlink:href="#SimHei-70b9" x="400"/>
     <use xlink:href="#SimHei-6c14" x="500"/>
     <use xlink:href="#SimHei-6e29" x="600"/>
     <use xlink:href="#SimHei-53d8" x="700"/>
     <use xlink:href="#SimHei-5316" x="800"/>
     <use xlink:href="#SimHei-6298" x="900"/>
     <use xlink:href="#SimHei-7ebf" x="1000"/>
     <use xlink:href="#SimHei-56fe" x="1100"/>
    </g>
   </g>
   <g id="legend_1">
    <g id="patch_7">
     <path d="M 2693.2 263.2675 
L 2837.2 263.2675 
Q 2841.2 263.2675 2841.2 259.2675 
L 2841.2 204.08 
Q 2841.2 200.08 2837.2 200.08 
L 2693.2 200.08 
Q 2689.2 200.08 2689.2 204.08 
L 2689.2 259.2675 
Q 2689.2 263.2675 2693.2 263.2675 
z
" style="fill: #ffffff; opacity: 0.8; stroke: #cccccc; stroke-linejoin: miter"/>
    </g>
    <g id="line2d_115">
     <path d="M 2697.2 217.095625 
L 2717.2 217.095625 
L 2737.2 217.095625 
" style="fill: none; stroke-dasharray: 18.5,8; stroke-dashoffset: 0; stroke: #008000; stroke-opacity: 0.75; stroke-width: 5"/>
    </g>
    <g id="text_60">
     <!-- 平均气温 -->
     <g transform="translate(2753.2 224.095625) scale(0.2 -0.2)">
      <defs>
       <path id="SimHei-5e73" d="M 4525 4825 
Q 4900 4825 5450 4850 
L 5450 4375 
Q 4925 4400 4525 4400 
L 3475 4400 
L 3475 2025 
L 5000 2025 
Q 5550 2025 6025 2050 
L 6025 1575 
Q 5550 1600 5000 1600 
L 3475 1600 
L 3475 450 
Q 3475 -100 3500 -600 
L 2925 -600 
Q 2950 -100 2950 450 
L 2950 1600 
L 1125 1600 
Q 775 1600 375 1575 
L 375 2050 
Q 775 2025 1175 2025 
L 2950 2025 
L 2950 4400 
L 1775 4400 
Q 1400 4400 875 4375 
L 875 4850 
Q 1400 4825 1750 4825 
L 4525 4825 
z
M 3925 2600 
Q 4500 3300 4900 4125 
Q 5150 3950 5400 3825 
Q 4775 2850 4350 2300 
Q 4150 2475 3925 2600 
z
M 1975 2350 
Q 1600 3100 1050 3725 
Q 1250 3875 1450 4050 
Q 2075 3300 2450 2725 
Q 2150 2500 1975 2350 
z
" transform="scale(0.015625)"/>
       <path id="SimHei-5747" d="M 5775 275 
Q 5775 -325 5362 -450 
Q 4950 -575 4425 -600 
Q 4375 -275 4250 25 
Q 4950 -25 5125 62 
Q 5300 150 5300 500 
L 5375 3700 
L 3550 3700 
Q 3425 3375 3262 3037 
Q 3100 2700 2925 2400 
Q 2675 2550 2475 2625 
Q 3150 3625 3500 5200 
Q 3800 5100 4075 5025 
Q 3975 4875 3875 4650 
Q 3775 4425 3675 4125 
L 5900 4125 
L 5775 275 
z
M 1250 3625 
L 1250 4375 
Q 1250 4775 1225 5100 
L 1775 5100 
Q 1750 4725 1750 4375 
L 1750 3625 
L 1900 3625 
Q 2200 3625 2525 3650 
L 2525 3150 
Q 2200 3175 1900 3175 
L 1750 3175 
L 1750 1100 
L 2500 1375 
Q 2475 1125 2525 900 
Q 1225 475 962 362 
Q 700 250 475 150 
Q 375 475 250 750 
Q 575 800 800 850 
Q 1025 900 1250 975 
L 1250 3175 
L 1125 3175 
Q 850 3175 400 3150 
L 400 3650 
Q 850 3625 1100 3625 
L 1250 3625 
z
M 4950 1625 
Q 4675 1425 4137 1050 
Q 3600 675 3175 300 
Q 3000 575 2850 775 
Q 3350 1050 3762 1325 
Q 4175 1600 4775 2075 
Q 4825 1850 4950 1625 
z
M 3775 3150 
Q 4125 2800 4475 2300 
Q 4250 2125 4100 1975 
Q 3900 2325 3450 2825 
Q 3600 3000 3775 3150 
z
" transform="scale(0.015625)"/>
      </defs>
      <use xlink:href="#SimHei-5e73"/>
      <use xlink:href="#SimHei-5747" x="100"/>
      <use xlink:href="#SimHei-6c14" x="200"/>
      <use xlink:href="#SimHei-6e29" x="300"/>
     </g>
    </g>
    <g id="line2d_116">
     <path d="M 2697.2 245.7675 
L 2717.2 245.7675 
L 2737.2 245.7675 
" style="fill: none; stroke: #1f77b4; stroke-width: 1.5; stroke-linecap: square"/>
    </g>
    <g id="text_61">
     <!-- 随机波动 -->
     <g transform="translate(2753.2 252.7675) scale(0.2 -0.2)">
      <defs>
       <path id="SimHei-968f" d="M 4050 4425 
Q 4325 5025 4350 5300 
Q 4675 5150 4950 5075 
Q 4825 4925 4525 4400 
L 5350 4400 
Q 5725 4400 6075 4425 
L 6075 4000 
Q 5775 4025 5350 4025 
L 4400 4025 
Q 4200 3675 3975 3350 
L 5800 3350 
Q 5775 3000 5775 2525 
L 5775 850 
Q 5775 600 5612 525 
Q 5450 450 5050 375 
Q 5025 600 4900 850 
Q 5350 775 5300 1250 
L 4175 1250 
L 4175 425 
L 3700 425 
Q 3725 775 3725 1200 
L 3725 3000 
L 3550 2725 
Q 3350 2900 3125 3000 
Q 3525 3350 3875 4025 
Q 3675 4025 3325 4000 
L 3325 4450 
Q 3675 4425 4050 4425 
z
M 2225 4900 
Q 2125 4725 1575 2925 
Q 1875 2525 2037 2150 
Q 2200 1775 2187 1462 
Q 2175 1150 1900 937 
Q 1625 725 1325 650 
Q 1275 875 1075 1200 
Q 1500 1200 1612 1350 
Q 1725 1500 1625 1900 
Q 1525 2300 1075 2875 
Q 1475 4025 1575 4550 
L 875 4550 
L 875 -625 
L 400 -625 
Q 425 0 425 675 
L 425 3800 
Q 425 4425 400 4900 
L 2225 4900 
z
M 3100 2825 
Q 3075 2475 3075 2050 
L 3075 525 
Q 3125 300 3750 175 
Q 4375 50 4787 37 
Q 5200 25 5500 37 
Q 5800 50 6175 125 
Q 6025 -150 6025 -425 
Q 5350 -425 4837 -387 
Q 4325 -350 3912 -262 
Q 3500 -175 3200 -25 
Q 2900 125 2737 -12 
Q 2575 -150 2300 -475 
Q 2150 -275 1950 -125 
Q 2275 175 2625 400 
L 2625 2425 
L 2175 2425 
L 2175 2850 
Q 2425 2825 3100 2825 
z
M 5300 1600 
L 5300 2125 
L 4175 2125 
L 4175 1600 
L 5300 1600 
z
M 5300 2475 
L 5300 3000 
L 4175 3000 
L 4175 2475 
L 5300 2475 
z
M 2750 4575 
Q 2975 4000 3125 3425 
Q 2875 3400 2625 3275 
Q 2500 3900 2275 4425 
Q 2525 4475 2750 4575 
z
" transform="scale(0.015625)"/>
       <path id="SimHei-673a" d="M 5100 4775 
Q 5075 4075 5075 3575 
L 5075 325 
Q 5075 0 5225 -25 
Q 5375 -50 5475 -37 
Q 5575 -25 5612 137 
Q 5650 300 5650 625 
Q 5875 500 6175 425 
Q 6075 -100 5975 -275 
Q 5875 -450 5650 -450 
L 5125 -450 
Q 4825 -450 4687 -312 
Q 4550 -175 4575 250 
L 4575 4350 
L 3625 4350 
Q 3625 2925 3587 2137 
Q 3550 1350 3362 712 
Q 3175 75 2625 -575 
Q 2500 -425 2175 -175 
Q 2525 100 2737 500 
Q 2950 900 3025 1325 
Q 3100 1750 3125 2225 
Q 3150 2700 3150 3425 
Q 3150 4175 3125 4775 
L 5100 4775 
z
M 2150 2725 
Q 2550 2175 2750 1875 
Q 2575 1725 2325 1550 
Q 2175 1875 1800 2425 
L 1800 600 
Q 1800 100 1825 -525 
L 1275 -525 
Q 1300 100 1300 600 
L 1300 2200 
Q 1175 1825 1025 1487 
Q 875 1150 600 725 
Q 375 975 200 1125 
Q 400 1350 725 2000 
Q 1050 2650 1225 3450 
L 1075 3450 
Q 725 3450 375 3400 
L 375 3875 
Q 725 3850 1050 3850 
L 1300 3850 
L 1300 4350 
Q 1300 4750 1275 5100 
L 1850 5100 
Q 1800 4850 1800 4350 
L 1800 3850 
L 2075 3850 
Q 2350 3850 2700 3875 
L 2700 3425 
Q 2150 3450 1800 3450 
L 1800 2450 
Q 1950 2575 2150 2725 
z
" transform="scale(0.015625)"/>
       <path id="SimHei-6ce2" d="M 5075 3275 
Q 5175 3600 5225 3850 
L 4325 3850 
L 4325 2750 
L 5550 2750 
Q 5400 2100 5125 1512 
Q 4850 925 4525 550 
Q 4775 350 5200 175 
Q 5625 0 6175 -100 
Q 5900 -300 5775 -600 
Q 5250 -425 4800 -175 
Q 4350 75 4200 225 
Q 3950 25 3537 -212 
Q 3125 -450 2500 -675 
Q 2375 -500 2050 -375 
Q 2525 -250 3062 25 
Q 3600 300 3850 550 
Q 3325 1300 3075 2325 
L 2825 2325 
Q 2800 1400 2487 725 
Q 2175 50 1875 -300 
Q 1700 -150 1375 -50 
Q 1750 325 1950 712 
Q 2150 1100 2262 1475 
Q 2375 1850 2387 2825 
Q 2400 3800 2350 4275 
L 3875 4275 
Q 3875 4850 3850 5200 
L 4350 5200 
Q 4325 4900 4325 4275 
L 5850 4275 
Q 5825 4125 5750 3837 
Q 5675 3550 5600 3200 
Q 5300 3250 5075 3275 
z
M 3525 2325 
Q 3800 1400 4200 925 
Q 4650 1475 4925 2325 
L 3525 2325 
z
M 1950 1700 
Q 1700 1375 1262 712 
Q 825 50 675 -200 
Q 475 50 225 275 
Q 525 525 937 1100 
Q 1350 1675 1550 2100 
L 1950 1700 
z
M 3875 2750 
L 3875 3850 
L 2850 3850 
L 2850 2750 
L 3875 2750 
z
M 925 4925 
Q 1600 4525 2000 4250 
Q 1800 4025 1675 3800 
Q 1250 4150 625 4500 
Q 775 4700 925 4925 
z
M 600 3525 
Q 1125 3250 1725 2850 
Q 1525 2675 1400 2425 
Q 925 2825 350 3100 
Q 450 3275 600 3525 
z
" transform="scale(0.015625)"/>
       <path id="SimHei-52a8" d="M 4125 5150 
Q 4425 5075 4700 5075 
Q 4650 4825 4637 4512 
Q 4625 4200 4625 3750 
L 6025 3750 
Q 6000 3425 5975 3025 
L 5850 175 
Q 5775 -325 5437 -437 
Q 5100 -550 4675 -600 
Q 4600 -300 4425 -50 
Q 4975 -75 5175 12 
Q 5375 100 5375 350 
L 5525 3325 
L 4625 3325 
Q 4575 2225 4462 1650 
Q 4350 1075 4112 587 
Q 3875 100 3150 -675 
Q 2900 -425 2700 -350 
Q 3175 25 3475 437 
Q 3775 850 3900 1287 
Q 4025 1725 4075 2200 
Q 4125 2675 4150 3325 
L 3725 3325 
Q 3450 3325 3075 3300 
L 3075 3775 
Q 3450 3750 3775 3750 
L 4150 3750 
L 4150 4450 
Q 4150 4800 4125 5150 
z
M 275 3025 
Q 650 3000 1175 3000 
L 2125 3000 
Q 2575 3000 3150 3025 
L 3150 2575 
Q 2575 2600 2150 2600 
L 1875 2600 
Q 1725 2200 1537 1750 
Q 1350 1300 1100 850 
Q 2075 950 2575 1050 
Q 2450 1350 2175 1800 
Q 2450 1950 2575 2050 
Q 2825 1600 3000 1287 
Q 3175 975 3375 525 
Q 3175 400 2925 275 
Q 2825 500 2750 650 
Q 1950 525 1462 450 
Q 975 375 625 250 
Q 525 500 375 725 
Q 700 925 962 1525 
Q 1225 2125 1350 2600 
L 1175 2600 
Q 650 2600 275 2575 
L 275 3025 
z
M 2000 4425 
Q 2425 4425 2950 4450 
L 2950 3975 
Q 2425 4000 2000 4000 
L 1400 4000 
Q 1000 4000 625 3975 
L 625 4450 
Q 975 4425 1375 4425 
L 2000 4425 
z
" transform="scale(0.015625)"/>
      </defs>
      <use xlink:href="#SimHei-968f"/>
      <use xlink:href="#SimHei-673a" x="100"/>
      <use xlink:href="#SimHei-6ce2" x="200"/>
      <use xlink:href="#SimHei-52a8" x="300"/>
     </g>
    </g>
   </g>
  </g>
 </g>
 <defs>
  <clipPath id="p5c05304b59">
   <rect x="396" y="190.08" width="2455.2" height="1219.68"/>
  </clipPath>
 </defs>
</svg>
